G04 CAM350/DFMSTREAM V11.0 (Build 715) Date:  Thu Jan 31 17:32:03 2019 *
G04 Database: (Untitled) *
G04 Layer 9: pcb2-1 *
%FSTAX43Y43*%
%MOMM*%
%SFA1.000B1.000*%

%MIA0B0*%
%IPPOS*%
%ADD26C,0.20000*%
%ADD27C,0.15000*%
%LNpcb2-1*%
%LPD*%
G54D26*
X0071011Y0084174D02*
G01X0071012Y0084158D01*
X0071014Y0084141*
X0071017Y0084125*
X0071021Y0084109*
X0071026Y0084093*
X0071032Y0084078*
X0071039Y0084063*
X0071047Y0084049*
X0071057Y0084035*
X0071067Y0084022*
X0071078Y008401*
X007109Y0083998*
X0071103Y0083988*
X0071116Y0083978*
X007113Y0083969*
X0071145Y0083961*
X007116Y0083955*
X0071175Y0083949*
X0071191Y0083945*
X0071207Y0083941*
X0071224Y0083939*
X007124Y0083938*
X0071257*
X0071273Y0083939*
X007129Y0083941*
X0071306Y0083945*
X0071322Y0083949*
X0071337Y0083955*
X0071352Y0083961*
X0071367Y0083969*
X0071381Y0083978*
X0071394Y0083988*
X0071407Y0083998*
X0071419Y008401*
X007143Y0084022*
X007144Y0084035*
X0071449Y0084049*
X0071458Y0084063*
X0071465Y0084078*
X0071471Y0084093*
X0071476Y0084109*
X007148Y0084125*
X0071483Y0084141*
X0071485Y0084158*
X0071487Y0084174*
X0075449Y0083399D02*
G01X0075949D01*
X0071011Y0084174D02*
G01X0071334D01*
X0071164D02*
G01X0071487D01*
X0071164Y0081324D02*
G01Y0084174D01*
Y0081324D02*
G01X0071334D01*
Y0084174*
X0076849Y0076609D02*
G01X0079349D01*
X0076849Y0076799D02*
G01X0079349D01*
X0076849Y0076199D02*
G01Y0076799D01*
X0079349Y0076199D02*
G01Y0076799D01*
G54D27*
X0076499Y0082499D02*
G01X0076599Y0082599D01*
Y0082799*
X0076499Y0082899*
X0076099*
X0075999Y0082799*
Y0082599*
X0076099Y0082499*
X0075999Y0082299D02*
G01X0076599D01*
Y0081999*
X0076499Y0081899*
X0076299*
X0076199Y0081999*
Y0082299*
X0075999Y00813D02*
G01Y0081699D01*
X0076399Y00813*
X0076499*
X0076599Y0081399*
Y0081599*
X0076499Y0081699*
X0074299Y0083099D02*
G01X0074899D01*
Y0082799*
X0074799Y0082699*
X0074599*
X0074499Y0082799*
Y0083099*
Y0082899D02*
G01X0074299Y0082699D01*
Y0082099D02*
G01Y0082499D01*
X0074699Y0082099*
X0074799*
X0074899Y0082199*
Y0082399*
X0074799Y0082499*
X0070799Y0084799D02*
G01Y0084299D01*
X0070899Y0084199*
X0071099*
X0071199Y0084299*
Y0084799*
X0071399Y0084199D02*
G01X0071599D01*
X0071499*
Y0084799*
X0071399Y0084699*
X0067599Y0075899D02*
G01X0066999D01*
Y0076199*
X0067099Y0076299*
X0067299*
X0067399Y0076199*
Y0075899*
Y0076099D02*
G01X0067599Y0076299D01*
Y0076799D02*
G01X0066999D01*
X0067299Y0076499*
Y0076899*
X0076999Y0080799D02*
G01X0077599D01*
Y0080499*
X0077499Y0080399*
X0077299*
X0077199Y0080499*
Y0080799*
Y0080599D02*
G01X0076999Y0080399D01*
X0077499Y0080199D02*
G01X0077599Y0080099D01*
Y0079899*
X0077499Y0079799*
X0077399*
X0077299Y0079899*
Y0079999*
Y0079899*
X0077199Y0079799*
X0077099*
X0076999Y0079899*
Y0080099*
X0077099Y0080199*
X0075599Y0073399D02*
G01Y0073999D01*
X0075899*
X0075999Y0073899*
Y0073699*
X0075899Y0073599*
X0075599*
X0075799D02*
G01X0075999Y0073399D01*
X0076199D02*
G01X0076399D01*
X0076299*
Y0073999*
X0076199Y0073899*
X0079599Y0076899D02*
G01X0079699Y0076999D01*
Y0077199*
X0079599Y0077299*
X0079199*
X0079099Y0077199*
Y0076999*
X0079199Y0076899*
X0079099Y0076699D02*
G01X0079699D01*
Y0076399*
X0079599Y0076299*
X0079399*
X0079299Y0076399*
Y0076699*
X0079099Y0076099D02*
G01Y0075899D01*
Y0075999*
X0079699*
X0079599Y0076099*
M02*
