G04 CAM350/DFMSTREAM V11.0 (Build 715) Date:  Thu Jan 31 17:32:03 2019 *
G04 Database: (Untitled) *
G04 Layer 3: pcb2-1 *
%FSTAX43Y43*%
%MOMM*%
%SFA1.000B1.000*%

%MIA0B0*%
%IPPOS*%
%ADD17C,0.50000*%
%ADD18C,0.80000*%
%ADD19C,1.27000*%
%ADD20C,5.99999*%
%ADD21R,0.35000X0.30000*%
%ADD22R,2.30000X3.19999*%
%ADD23R,2.40000X3.19999*%
%ADD24R,2.30000X3.19999*%
%ADD25C,6.99999*%
%LNpcb2-1*%
%LPD*%
G36*
X0073981Y0069907D02*
G01X0073599Y0070229D01*
Y0073399*
X0073492Y0073457*
X0073546Y0073869*
X0074084Y0074092*
X0074581Y0074396*
X0075023Y0074775*
X0075402Y0075217*
X0075706Y0075714*
X0075929Y0076252*
X0076065Y0076818*
X007611Y0077399*
X0076065Y007798*
X0075929Y0078546*
X0075706Y0079084*
X0075402Y0079581*
X0075023Y0080023*
X0074581Y0080402*
X0074084Y0080706*
X0073546Y0080929*
X007298Y0081065*
X0072399Y008111*
X0071818Y0081065*
X0071252Y0080929*
X0070714Y0080706*
X0070217Y0080402*
X0069775Y0080023*
X0069396Y0079581*
X0069092Y0079084*
X0068869Y0078546*
X0068733Y007798*
X0068688Y0077399*
X0068503Y0077199*
X0066099*
Y0073599*
X0068799*
Y0075271*
X006928Y0075407*
X0069396Y0075217*
X0069775Y0074775*
X0070217Y0074396*
X0070714Y0074092*
X0071203Y0073889*
X0071106Y0073399*
X0070799*
X0070528Y007312*
X0070395Y0073295*
X007022Y0073428*
X0070017Y0073513*
X0069799Y0073541*
X0069581Y0073513*
X0069378Y0073428*
X0069203Y0073295*
X006907Y007312*
X0068985Y0072917*
X0068957Y0072699*
X0068985Y0072481*
X006907Y0072278*
X0069203Y0072103*
X0069378Y007197*
X0069581Y0071885*
X0069773Y007186*
X0070466Y0071166*
X0070665Y0071034*
X0070799Y0071007*
Y0070261*
X0070399Y0069961*
X0069697Y0070163*
X0068881Y0070501*
X0068107Y0070929*
X0067387Y007144*
X0066728Y0072028*
X006614Y0072687*
X0065628Y0073408*
X0065201Y0074181*
X0064863Y0074997*
X0064618Y0075846*
X006447Y0076717*
X0064421Y0077599*
X006447Y0078481*
X0064618Y0079352*
X0064863Y0080201*
X0065201Y0081017*
X0065628Y008179*
X0065964Y0082263*
X0066111Y0082216*
X0066261Y0081739*
X006617Y008162*
X0066085Y0081417*
X0066057Y0081199*
X0066085Y0080981*
X006617Y0080778*
X0066303Y0080603*
X0066478Y008047*
X0066681Y0080385*
X0066899Y0080357*
X0067117Y0080385*
X006732Y008047*
X0067495Y0080603*
X0067628Y0080778*
X0067713Y0080981*
X0067741Y0081199*
X0067713Y0081417*
X0067628Y008162*
X0067495Y0081795*
X0067358Y0081899*
Y0082009*
X0068523Y0083175*
X0068623Y0083323*
X0068658Y0083499*
Y0083549*
X0068699*
X006915Y0083723*
X006925Y0083575*
X0069398Y0083475*
X0069574Y008344*
X0070326*
X0070423Y0083375*
X0070599Y008334*
X0071926*
X0072023Y0083275*
X0072199Y008324*
X0076033*
X0076157Y0083099*
X0076185Y0082881*
X007627Y0082678*
X0076403Y0082503*
X0076578Y008237*
X0076781Y0082285*
X0076999Y0082257*
X0077217Y0082285*
X0077321Y0082328*
X0078473Y0081176*
Y0080466*
X0078508Y0080291*
X0078607Y0080142*
X007914Y0079609*
Y0078589*
X0078075Y0077523*
X0077975Y0077375*
X007794Y0077199*
X0076699*
Y0073599*
X007856*
X007879Y0073155*
X0078458Y0072687*
X0077869Y0072028*
X007721Y007144*
X007649Y0070929*
X0075717Y0070501*
X0074901Y0070163*
X0074052Y0069919*
X0073981Y0069907*
G37*
G54D19*
X0069799Y0072699D03*
X0078099Y0079699D03*
X0066899Y0081199D03*
X0068499D03*
X0076718Y0072153D03*
X0076999Y0083099D03*
X0072599Y0084799D03*
G54D20*
X0072399Y0077399D03*
G54D21*
X0069674Y0083899D03*
X0068324D03*
G54D22*
X0067449Y0075399D03*
G54D23*
X0072199Y0071599D03*
G54D24*
X0078049Y0075399D03*
G54D25*
X0072399Y0077399D03*
G54D17*
X0067099Y0072599D02*
G01X0067199Y0072699D01*
Y0074899*
X0077499Y0079699D02*
G01X0078199D01*
X0068499Y0080099D02*
G01Y0081199D01*
X0066899Y0078499D02*
G01X0068499Y0080099D01*
X0076099Y0072999D02*
G01X0076718Y007238D01*
X0076399Y0078599D02*
G01X0077499Y0079699D01*
X0076399Y0076316D02*
G01Y0078599D01*
X0076099Y0076016D02*
G01X0076399Y0076316D01*
X0076099Y0072999D02*
G01Y0076016D01*
X0076718Y0072153D02*
G01Y007238D01*
X0078932Y0080466D02*
G01Y0081366D01*
Y0080466D02*
G01X0079599Y0079799D01*
Y0078399D02*
G01Y0079799D01*
X0076999Y0083099D02*
G01X0077199D01*
X0078932Y0081366*
X0066899Y0081099D02*
G01Y0082199D01*
X0068199Y0083899D02*
G01X0068224D01*
X0066899Y0082199D02*
G01X0068199Y0083499D01*
Y0083799*
X0068499Y0081199D02*
G01X0069499Y0082199D01*
X0074999*
X0077499Y0079699*
X0078399Y0075199D02*
G01Y0077199D01*
X0079599Y0078399*
X0069574Y0083899D02*
G01X0070499D01*
X0069999D02*
G01X0070049Y0083949D01*
Y0084599*
X0076599Y0083699D02*
G01X0076999Y0083299D01*
X0072199Y0083699D02*
G01X0076599D01*
X0072099Y0083799D02*
G01X0072199Y0083699D01*
X0070599Y0083799D02*
G01X0072099D01*
X0070499Y0083899D02*
G01X0070599Y0083799D01*
X0071349Y0084599D02*
G01Y0084749D01*
X0071399Y0084799*
X0072599*
G54D18*
X0069799Y0072699D02*
G01X0070899Y0071599D01*
X0072299*
X0071599Y0071399D02*
G01X0072299D01*
M02*
