%FSTAX43Y43*%
%MOMM*%
%SFA1B1*%

%IPPOS*%
%ADD48O,0.902998X0.702999*%
%ADD49O,0.902998X0.702999*%
%ADD50R,0.902998X0.702999*%
%ADD51R,0.902998X1.102998*%
%ADD52R,1.632997X0.753998*%
%ADD53R,1.302997X1.202998*%
%ADD54R,1.202998X1.302997*%
%ADD55R,1.702997X1.502997*%
%ADD56R,1.102998X0.902998*%
%ADD57R,0.502999X1.302997*%
%ADD58R,1.302997X0.502999*%
%ADD59O,0.702999X0.902998*%
%ADD60O,0.702999X0.902998*%
%ADD61R,0.702999X0.902998*%
%ADD62R,2.402995X0.802998*%
%ADD63R,2.402995X0.802998*%
%ADD64R,2.002996X1.802996*%
%ADD65O,1.302997X0.502999*%
%ADD66R,1.702997X1.702997*%
%ADD67C,1.702997*%
%ADD68C,1.472997*%
%LNpcb1-1*%
%LPD*%
G54D48*
X0148963Y0130874D03*
X0146563Y0130869D03*
G54D49*
X0148963Y0132774D03*
X0146563Y0131824D03*
G54D50*
X0146563Y0132774D03*
G54D51*
X0144023Y0132916D03*
Y0131616D03*
X0150637Y0132916D03*
Y0131616D03*
X0179568Y0149628D03*
X0174488Y015798D03*
Y015928D03*
X0179568Y0148328D03*
Y0156232D03*
Y0154932D03*
X0163235Y0101637D03*
Y0102937D03*
X0159218Y0124194D03*
Y0122894D03*
X0160742Y0124194D03*
Y0122894D03*
X0159171Y0101637D03*
Y0102937D03*
X0156631Y0124159D03*
Y0122859D03*
X0157647Y0101637D03*
Y0102937D03*
X0138317Y0107804D03*
Y0109104D03*
X0163184Y0123765D03*
Y0122465D03*
X0164759Y0123765D03*
Y0122465D03*
X0153583Y0124159D03*
Y0122859D03*
X0155107Y0124159D03*
Y0122859D03*
X0144463Y0107779D03*
Y0109079D03*
X0141415Y0107779D03*
Y0109079D03*
X01475Y0107889D03*
Y0109189D03*
X0150417Y0107889D03*
Y0109189D03*
X0144032Y0097351D03*
Y0096051D03*
X0146572Y0097351D03*
Y0096051D03*
X0149112Y0097351D03*
Y0096051D03*
X0151652Y0097351D03*
Y0096051D03*
X0154192Y0097351D03*
Y0096051D03*
X0156732Y0097351D03*
Y0096051D03*
X0159272Y0097351D03*
Y0096051D03*
X0161812Y0097351D03*
Y0096051D03*
X0134356Y0146072D03*
Y0144772D03*
Y0152392D03*
Y0153692D03*
X0149596Y0152392D03*
Y0153692D03*
Y0144772D03*
Y0146072D03*
X0150104Y0140408D03*
Y0139108D03*
X0134864Y0138092D03*
Y0139392D03*
X0141223Y0097169D03*
Y0095869D03*
G54D52*
X016155Y0135384D03*
X0161299Y0148059D03*
Y0150599D03*
Y0151859D03*
Y0153139D03*
Y0154399D03*
X0170921Y0149319D03*
Y0150599D03*
Y0151859D03*
Y0153139D03*
Y0154399D03*
Y0156939D03*
X0161299D03*
Y0149319D03*
X0171172Y0136644D03*
Y0137924D03*
Y0139184D03*
Y0140464D03*
Y0141724D03*
Y0144264D03*
X016155D03*
Y0141724D03*
Y0139184D03*
Y0137924D03*
Y0136644D03*
X0137343Y0153894D03*
Y0152634D03*
Y0150094D03*
Y0148814D03*
Y0147554D03*
Y0146274D03*
Y0145014D03*
X0146965D03*
Y0146274D03*
Y0147554D03*
Y0148814D03*
Y0150094D03*
Y0152634D03*
Y0153894D03*
X0161299Y0155679D03*
X016155Y0140464D03*
Y0143004D03*
X0137343Y0151354D03*
X0146965D03*
X0170921Y0148059D03*
Y0155679D03*
X0171172Y0135384D03*
Y0143004D03*
G54D53*
X0148604Y0120326D03*
X0146904D03*
X0148604Y0117278D03*
X0146904D03*
X0148579Y0114355D03*
X0146879D03*
G54D54*
X0139841Y0109304D03*
Y0107604D03*
X0142939Y0109279D03*
Y0107579D03*
X0145987Y0109279D03*
Y0107579D03*
X0148959Y0109339D03*
Y0107639D03*
X0151941Y0109389D03*
Y0107689D03*
X0161203Y0103137D03*
Y0101437D03*
G54D55*
X0155615Y0103237D03*
Y0101337D03*
X0132324Y0146372D03*
Y0144472D03*
Y0153992D03*
Y0152092D03*
X0151628Y0153992D03*
Y0152092D03*
Y0146372D03*
Y0144472D03*
X0148072Y0138808D03*
Y0140708D03*
G54D56*
X0147104Y0118802D03*
X0148404D03*
X0147104Y0121819D03*
X0148404D03*
X0147079Y0115879D03*
X0148379D03*
X0135223Y0122615D03*
X0133923D03*
X0135223Y0128711D03*
X0133923D03*
G54D57*
X0156141Y0119069D03*
X0156641D03*
X0157141D03*
X0157641D03*
X0158141D03*
X0158641D03*
X0159141D03*
X0159641D03*
X0160141D03*
X0160641D03*
X0161141D03*
X0161641D03*
X0162141D03*
X0162641D03*
X0163141D03*
X0163641D03*
Y0107469D03*
X0163141D03*
X0162641D03*
X0162141D03*
X0161641D03*
X0161141D03*
X0160641D03*
X0160141D03*
X0159641D03*
X0159141D03*
X0158641D03*
X0158141D03*
X0157641D03*
X0157141D03*
X0156641D03*
X0156141D03*
G54D58*
X0165691Y0117019D03*
Y0116519D03*
Y0116019D03*
Y0115519D03*
Y0115019D03*
Y0114519D03*
Y0114019D03*
Y0113519D03*
Y0113019D03*
Y0112519D03*
Y0112019D03*
Y0111519D03*
Y0111019D03*
Y0110519D03*
Y0110019D03*
Y0109519D03*
X0154091D03*
Y0110519D03*
Y0111519D03*
Y0112519D03*
Y0113519D03*
Y0114519D03*
Y0115519D03*
Y0116519D03*
Y0116019D03*
Y0115019D03*
Y0114019D03*
Y0113019D03*
Y0112019D03*
Y0111019D03*
Y0110019D03*
G54D59*
X0135338Y0124599D03*
X0134388Y0126999D03*
G54D60*
X0133438Y0124599D03*
X0133433Y0126999D03*
G54D61*
X0135338Y0126999D03*
G54D62*
X0145263Y013722D03*
G54D63*
X0140063Y014103D03*
Y013976D03*
Y013849D03*
Y013722D03*
X0145263Y014103D03*
Y013976D03*
Y013849D03*
G54D64*
X0136896Y0140142D03*
Y0137342D03*
G54D65*
X0154091Y0117019D03*
G54D66*
X0177043Y0140579D03*
Y0162423D03*
X0128783Y0135499D03*
Y0157851D03*
X0177291Y0104139D03*
X0128015Y0107187D03*
X0145795Y0163067D03*
X0161812Y0093145D03*
G54D67*
X0177043Y0138039D03*
Y0135499D03*
Y0132959D03*
Y0130419D03*
Y0127879D03*
Y0125339D03*
Y0122799D03*
Y0159883D03*
Y0157343D03*
Y0154803D03*
Y0152263D03*
Y0149723D03*
Y0147183D03*
Y0144643D03*
X0128783Y0132959D03*
Y0130419D03*
Y0127879D03*
Y0125339D03*
Y0122799D03*
Y0155311D03*
Y0152771D03*
Y0150231D03*
Y0147691D03*
Y0145151D03*
Y0142611D03*
Y0140071D03*
X0128015Y0109727D03*
Y0112267D03*
Y0114807D03*
X0177291Y0116839D03*
Y0114299D03*
Y0111759D03*
Y0109219D03*
Y0106679D03*
X0140715Y0163067D03*
X0143255D03*
X0161812Y0090605D03*
X0159272Y0093145D03*
Y0090605D03*
X0156732Y0093145D03*
Y0090605D03*
X0154192Y0093145D03*
Y0090605D03*
X0151652Y0093145D03*
Y0090605D03*
X0149112Y0093145D03*
Y0090605D03*
X0146572Y0093145D03*
Y0090605D03*
X0144032Y0093145D03*
Y0090605D03*
X0141492Y0093145D03*
Y0090605D03*
X0138952Y0093145D03*
Y0090605D03*
G54D68*
X0169464Y0146024D03*
X0179564Y0146544D03*
X0135749Y0143849D03*
X0169049Y0095649D03*
X0168924Y0102549D03*
X0153664Y0106919D03*
X0152999Y0121174D03*
X0147499Y0106174D03*
X0144484Y0106204D03*
X0150404Y0105964D03*
X0141409Y0106129D03*
X0138334D03*
X0145429Y0115839D03*
Y0118789D03*
X0145454Y0121789D03*
X0153814Y0132944D03*
X0141864Y0131794D03*
X0133914Y0130594D03*
X0164314Y0146144D03*
X0164414Y0133919D03*
X0169014Y0108069D03*
X0165414Y0120744D03*
X0172889Y0112494D03*
X0174089Y0110094D03*
X0170787Y0113592D03*
X0163689Y0149119D03*
X0163939Y0142694D03*
X0148089D03*
X0148076Y0136407D03*
X0144591Y0120326D03*
X0144515Y0117278D03*
X0144454Y0114364D03*
X0139859Y0105179D03*
X0142959Y0105154D03*
X0145959Y0105129D03*
X0148929Y0105239D03*
X0151954D03*
X0174089Y0156594D03*
X0172889Y0158919D03*
X0173314Y0150719D03*
X0168639Y0132319D03*
X0167039Y0128819D03*
X0174264Y0126069D03*
X0169989Y0127644D03*
X0170654Y0111154D03*
X0168639Y0110869D03*
Y0114119D03*
X0170764Y0108719D03*
X0173614Y0139944D03*
X0173589Y0143044D03*
X0173464Y0147894D03*
X0174114Y0161294D03*
X0170939Y0160069D03*
X0132724Y0140674D03*
X0148799Y0123424D03*
X0149089Y0129339D03*
X0131574Y0115149D03*
M02*