G04 CAM350/DFMSTREAM V11.0 (Build 715) Date:  Thu Jan 31 17:36:42 2019 *
G04 Database: (Untitled) *
G04 Layer 10: pcb1-1 *
%FSTAX43Y43*%
%MOMM*%
%SFA1.000B1.000*%

%MIA0B0*%
%IPPOS*%
%ADD10R,0.70000X0.90000*%
%ADD11R,1.10000X1.00000*%
%ADD12R,0.90000X0.70000*%
%ADD17O,0.70000X0.50000*%
%ADD19R,0.70000X0.50000*%
%ADD24O,0.50000X0.70000*%
%ADD25R,0.50000X0.70000*%
%ADD73R,1.43000X0.55100*%
%ADD48R,1.00000X1.10000*%
%ADD49R,1.50000X1.30000*%
%ADD50R,0.30000X1.10000*%
%ADD52R,1.10000X0.30000*%
%ADD54R,2.20000X0.60000*%
%ADD55R,1.80000X1.60000*%
%ADD57O,1.10000X0.30000*%
%LNpcb1-1*%
%LPD*%
G54D17*
X0148963Y0130874D03*
X0146563Y0130869D03*
X0148963Y0132774D03*
X0146563Y0131824D03*
G54D19*
Y0132774D03*
G54D10*
X0144023Y0132916D03*
Y0131616D03*
X0150637Y0132916D03*
Y0131616D03*
X0179568Y0149628D03*
X0174488Y015798D03*
Y015928D03*
X0179568Y0148328D03*
Y0156232D03*
Y0154932D03*
X0163235Y0101637D03*
Y0102937D03*
X0159218Y0124194D03*
Y0122894D03*
X0160742Y0124194D03*
Y0122894D03*
X0159171Y0101637D03*
Y0102937D03*
X0156631Y0124159D03*
Y0122859D03*
X0157647Y0101637D03*
Y0102937D03*
X0138317Y0107804D03*
Y0109104D03*
X0163184Y0123765D03*
Y0122465D03*
X0164759Y0123765D03*
Y0122465D03*
X0153583Y0124159D03*
Y0122859D03*
X0155107Y0124159D03*
Y0122859D03*
X0144463Y0107779D03*
Y0109079D03*
X0141415Y0107779D03*
Y0109079D03*
X01475Y0107889D03*
Y0109189D03*
X0150417Y0107889D03*
Y0109189D03*
X0144032Y0097351D03*
Y0096051D03*
X0146572Y0097351D03*
Y0096051D03*
X0149112Y0097351D03*
Y0096051D03*
X0151652Y0097351D03*
Y0096051D03*
X0154192Y0097351D03*
Y0096051D03*
X0156732Y0097351D03*
Y0096051D03*
X0159272Y0097351D03*
Y0096051D03*
X0161812Y0097351D03*
Y0096051D03*
X0134356Y0146072D03*
Y0144772D03*
Y0152392D03*
Y0153692D03*
X0149596Y0152392D03*
Y0153692D03*
Y0144772D03*
Y0146072D03*
X0150104Y0140408D03*
Y0139108D03*
X0134864Y0138092D03*
Y0139392D03*
X0141223Y0097169D03*
Y0095869D03*
G54D73*
X016155Y0135384D03*
X0161299Y0148059D03*
Y0150599D03*
Y0151859D03*
Y0153139D03*
Y0154399D03*
X0170921Y0149319D03*
Y0150599D03*
Y0151859D03*
Y0153139D03*
Y0154399D03*
Y0156939D03*
X0161299D03*
Y0149319D03*
X0171172Y0136644D03*
Y0137924D03*
Y0139184D03*
Y0140464D03*
Y0141724D03*
Y0144264D03*
X016155D03*
Y0141724D03*
Y0139184D03*
Y0137924D03*
Y0136644D03*
X0137343Y0153894D03*
Y0152634D03*
Y0150094D03*
Y0148814D03*
Y0147554D03*
Y0146274D03*
Y0145014D03*
X0146965D03*
Y0146274D03*
Y0147554D03*
Y0148814D03*
Y0150094D03*
Y0152634D03*
Y0153894D03*
X0161299Y0155679D03*
X016155Y0140464D03*
Y0143004D03*
X0137343Y0151354D03*
X0146965D03*
X0170921Y0148059D03*
Y0155679D03*
X0171172Y0135384D03*
Y0143004D03*
G54D11*
X0148604Y0120326D03*
X0146904D03*
X0148604Y0117278D03*
X0146904D03*
X0148579Y0114355D03*
X0146879D03*
G54D48*
X0139841Y0109304D03*
Y0107604D03*
X0142939Y0109279D03*
Y0107579D03*
X0145987Y0109279D03*
Y0107579D03*
X0148959Y0109339D03*
Y0107639D03*
X0151941Y0109389D03*
Y0107689D03*
X0161203Y0103137D03*
Y0101437D03*
G54D49*
X0155615Y0103237D03*
Y0101337D03*
X0132324Y0146372D03*
Y0144472D03*
Y0153992D03*
Y0152092D03*
X0151628Y0153992D03*
Y0152092D03*
Y0146372D03*
Y0144472D03*
X0148072Y0138808D03*
Y0140708D03*
G54D12*
X0147104Y0118802D03*
X0148404D03*
X0147104Y0121819D03*
X0148404D03*
X0147079Y0115879D03*
X0148379D03*
X0135223Y0122615D03*
X0133923D03*
X0135223Y0128711D03*
X0133923D03*
G54D50*
X0156141Y0119069D03*
X0156641D03*
X0157141D03*
X0157641D03*
X0158141D03*
X0158641D03*
X0159141D03*
X0159641D03*
X0160141D03*
X0160641D03*
X0161141D03*
X0161641D03*
X0162141D03*
X0162641D03*
X0163141D03*
X0163641D03*
Y0107469D03*
X0163141D03*
X0162641D03*
X0162141D03*
X0161641D03*
X0161141D03*
X0160641D03*
X0160141D03*
X0159641D03*
X0159141D03*
X0158641D03*
X0158141D03*
X0157641D03*
X0157141D03*
X0156641D03*
X0156141D03*
G54D52*
X0165691Y0117019D03*
Y0116519D03*
Y0116019D03*
Y0115519D03*
Y0115019D03*
Y0114519D03*
Y0114019D03*
Y0113519D03*
Y0113019D03*
Y0112519D03*
Y0112019D03*
Y0111519D03*
Y0111019D03*
Y0110519D03*
Y0110019D03*
Y0109519D03*
X0154091D03*
Y0110519D03*
Y0111519D03*
Y0112519D03*
Y0113519D03*
Y0114519D03*
Y0115519D03*
Y0116519D03*
Y0116019D03*
Y0115019D03*
Y0114019D03*
Y0113019D03*
Y0112019D03*
Y0111019D03*
Y0110019D03*
G54D24*
X0135338Y0124599D03*
X0134388Y0126999D03*
X0133438Y0124599D03*
X0133433Y0126999D03*
G54D25*
X0135338D03*
G54D54*
X0145263Y013722D03*
X0140063Y014103D03*
Y013976D03*
Y013849D03*
Y013722D03*
X0145263Y014103D03*
Y013976D03*
Y013849D03*
G54D55*
X0136896Y0140142D03*
Y0137342D03*
G54D57*
X0154091Y0117019D03*
M02*
