G04 CAM350/DFMSTREAM V11.0 (Build 715) Date:  Thu Jan 31 17:36:42 2019 *
G04 Database: (Untitled) *
G04 Layer 9: pcb1-1 *
%FSTAX43Y43*%
%MOMM*%
%SFA1.000B1.000*%

%MIA0B0*%
%IPPOS*%
%ADD41C,0.20000*%
%ADD42C,0.01000*%
%ADD43C,0.25000*%
%ADD44C,0.15000*%
%ADD45C,0.25400*%
%ADD46C,0.07600*%
%ADD47C,0.20300*%
%LNpcb1-1*%
%LPD*%
G54D41*
X0147526Y0133249D02*
G01X0147527Y0133233D01*
X0147529Y0133217*
X0147532Y01332*
X0147536Y0133184*
X0147541Y0133168*
X0147547Y0133153*
X0147554Y0133138*
X0147563Y0133124*
X0147572Y013311*
X0147582Y0133097*
X0147593Y0133085*
X0147605Y0133073*
X0147618Y0133063*
X0147631Y0133053*
X0147645Y0133044*
X014766Y0133036*
X0147675Y013303*
X014769Y0133024*
X0147706Y013302*
X0147722Y0133016*
X0147739Y0133014*
X0147755Y0133013*
X0147772*
X0147788Y0133014*
X0147805Y0133016*
X0147821Y013302*
X0147837Y0133024*
X0147852Y013303*
X0147867Y0133036*
X0147882Y0133044*
X0147896Y0133053*
X0147909Y0133063*
X0147922Y0133073*
X0147934Y0133085*
X0147945Y0133097*
X0147955Y013311*
X0147964Y0133124*
X0147973Y0133138*
X014798Y0133153*
X0147986Y0133168*
X0147991Y0133184*
X0147995Y01332*
X0147998Y0133217*
X0148Y0133233*
Y0133249*
X0135813Y0126036D02*
G01X0135797D01*
X0135781Y0126034*
X0135764Y0126031*
X0135748Y0126027*
X0135732Y0126022*
X0135717Y0126016*
X0135702Y0126009*
X0135688Y0126*
X0135674Y0125991*
X0135661Y0125981*
X0135649Y012597*
X0135637Y0125958*
X0135627Y0125945*
X0135617Y0125932*
X0135608Y0125918*
X01356Y0125903*
X0135594Y0125888*
X0135588Y0125873*
X0135584Y0125857*
X013558Y0125841*
X0135578Y0125824*
X0135577Y0125808*
Y0125791*
X0135578Y0125775*
X013558Y0125758*
X0135584Y0125742*
X0135588Y0125726*
X0135594Y0125711*
X01356Y0125696*
X0135608Y0125681*
X0135617Y0125667*
X0135627Y0125654*
X0135637Y0125641*
X0135649Y0125629*
X0135661Y0125618*
X0135674Y0125608*
X0135688Y0125599*
X0135702Y012559*
X0135717Y0125583*
X0135732Y0125577*
X0135748Y0125572*
X0135764Y0125568*
X0135781Y0125565*
X0135797Y0125563*
X0135813Y0125561*
X014303Y0136625D02*
G01Y0136651D01*
X0143027Y0136677*
X0143022Y0136702*
X0143016Y0136727*
X0143008Y0136751*
X0142999Y0136775*
X0142988Y0136798*
X0142975Y013682*
X014296Y0136841*
X0142945Y0136861*
X0142927Y013688*
X0142909Y0136898*
X0142889Y0136915*
X0142869Y013693*
X0142847Y0136943*
X0142824Y0136955*
X0142801Y0136966*
X0142777Y0136975*
X0142752Y0136982*
X0142727Y0136987*
X0142702Y013699*
X0142676Y0136992*
X0142651*
X0142625Y013699*
X01426Y0136987*
X0142575Y0136982*
X014255Y0136975*
X0142526Y0136966*
X0142503Y0136955*
X014248Y0136943*
X0142458Y013693*
X0142438Y0136915*
X0142418Y0136898*
X0142399Y013688*
X0142382Y0136861*
X0142367Y0136841*
X0142352Y013682*
X0142339Y0136798*
X0142328Y0136775*
X0142319Y0136751*
X0142311Y0136727*
X0142304Y0136702*
X01423Y0136677*
X0142297Y0136651*
X0142296Y0136625*
X0147748Y0130399D02*
G01Y0133249D01*
Y0130399D02*
G01X0147778D01*
Y0133249*
X0148*
X0147526D02*
G01X0147748D01*
X0143773Y0133666D02*
G01X0144273D01*
X0150387D02*
G01X0150887D01*
X0154965Y0104187D02*
G01X0156265D01*
X0149154Y0118552D02*
G01Y0119052D01*
Y0121569D02*
G01Y0122069D01*
X0162985Y0103687D02*
G01X0163485D01*
X0158968Y0122144D02*
G01X0159468D01*
X0160492D02*
G01X0160992D01*
X0158921Y0103687D02*
G01X0159421D01*
X0156381Y0122109D02*
G01X0156881D01*
X0157397Y0103687D02*
G01X0157897D01*
X0160803Y0103987D02*
G01X0161603D01*
X0138067Y0109854D02*
G01X0138567D01*
X0149129Y0115629D02*
G01Y0116129D01*
X0162934Y0121715D02*
G01X0163434D01*
X0164509D02*
G01X0165009D01*
X0153333Y0122109D02*
G01X0153833D01*
X0154857D02*
G01X0155357D01*
X0144213Y0109829D02*
G01X0144713D01*
X0141165D02*
G01X0141665D01*
X014725Y0109939D02*
G01X014775D01*
X0150167D02*
G01X0150667D01*
X0131674Y0147322D02*
G01X0132974D01*
X0134106Y0146822D02*
G01X0134606D01*
X0131674Y0154942D02*
G01X0132974D01*
X0134106Y0154442D02*
G01X0134606D01*
X0149346D02*
G01X0149846D01*
X0150978Y0154942D02*
G01X0152278D01*
X0135973Y0122365D02*
G01Y0122865D01*
X0132963Y0125814D02*
G01X0135813D01*
X0132963Y0125784D02*
G01Y0125814D01*
Y0125784D02*
G01X0135813D01*
Y0125561D02*
G01Y0125784D01*
Y0125814D02*
G01Y0126036D01*
X0135973Y0128461D02*
G01Y0128961D01*
X0150978Y0147322D02*
G01X0152278D01*
X0149346Y0146822D02*
G01X0149846D01*
X0149854Y0138358D02*
G01X0150354D01*
X0147422Y0137858D02*
G01X0148722D01*
X0141563Y0136625D02*
G01Y0141625D01*
X0143763Y0136625D02*
G01Y0141625D01*
X0141563D02*
G01X0143763D01*
X0141563Y0136625D02*
G01X0142296D01*
X014303D02*
G01X0143763D01*
X0137696Y0138442D02*
G01Y0139042D01*
X0136096Y0138442D02*
G01Y0139042D01*
X0137696*
X0136096Y0138852D02*
G01X0137696D01*
X0134614Y0140142D02*
G01X0135114D01*
X0126745Y0116077D02*
G01X0129285D01*
Y0105917D02*
G01Y0116077D01*
X0126745Y0105917D02*
G01Y0116077D01*
Y0105917D02*
G01X0129285D01*
X0178561Y0102869D02*
G01Y0118109D01*
X0176021Y0102869D02*
G01Y0118109D01*
Y0102869D02*
G01X0178561D01*
X0176021Y0118109D02*
G01X0178561D01*
X0147065Y0161797D02*
G01Y0164337D01*
X0139445Y0161797D02*
G01X0147065D01*
X0139445D02*
G01Y0164337D01*
X0147065*
X0137682Y0089335D02*
G01Y0094415D01*
X0161177D02*
G01X0163082D01*
Y0089335D02*
G01Y0094415D01*
X0161177Y0089335D02*
G01X0163082D01*
X0137682D02*
G01X0161177D01*
X0137682Y0094415D02*
G01X0161177D01*
G54D42*
X0172319Y014781D02*
G01X0172337Y0147811D01*
X0172354Y0147813*
X0172371Y0147816*
X0172388Y014782*
X0172405Y0147826*
X0172421Y0147832*
X0172437Y014784*
X0172452Y0147848*
X0172466Y0147858*
X017248Y0147869*
X0172493Y0147881*
X0172505Y0147893*
X0172516Y0147907*
X0172527Y0147921*
X0172536Y0147935*
X0172544Y0147951*
X0172551Y0147967*
X0172557Y0147983*
X0172562Y0148*
X0172566Y0148017*
X0172568Y0148034*
X0172569Y0148052*
Y0148069*
X0172568Y0148087*
X0172566Y0148104*
X0172562Y0148121*
X0172557Y0148138*
X0172551Y0148154*
X0172544Y014817*
X0172536Y0148185*
X0172527Y01482*
X0172516Y0148214*
X0172505Y0148228*
X0172493Y014824*
X017248Y0148252*
X0172466Y0148263*
X0172452Y0148273*
X0172437Y0148281*
X0172421Y0148289*
X0172405Y0148295*
X0172388Y0148301*
X0172371Y0148305*
X0172354Y0148308*
X0172337Y014831*
X0172319*
X0172302*
X0172285Y0148308*
X0172268Y0148305*
X0172251Y0148301*
X0172234Y0148295*
X0172218Y0148289*
X0172202Y0148281*
X0172187Y0148273*
X0172173Y0148263*
X0172159Y0148252*
X0172146Y014824*
X0172134Y0148228*
X0172122Y0148214*
X0172112Y01482*
X0172103Y0148185*
X0172095Y014817*
X0172088Y0148154*
X0172082Y0148138*
X0172077Y0148121*
X0172073Y0148104*
X0172071Y0148087*
X017207Y0148069*
Y0148052*
X0172071Y0148034*
X0172073Y0148017*
X0172077Y0148*
X0172082Y0147983*
X0172088Y0147967*
X0172095Y0147951*
X0172103Y0147935*
X0172112Y0147921*
X0172122Y0147907*
X0172134Y0147893*
X0172146Y0147881*
X0172159Y0147869*
X0172173Y0147858*
X0172187Y0147848*
X0172202Y014784*
X0172218Y0147832*
X0172234Y0147826*
X0172251Y014782*
X0172268Y0147816*
X0172285Y0147813*
X0172302Y0147811*
X0172319Y014781*
X017257Y0135135D02*
G01X0172588Y0135136D01*
X0172605Y0135138*
X0172622Y0135141*
X0172639Y0135145*
X0172656Y0135151*
X0172672Y0135157*
X0172688Y0135165*
X0172703Y0135173*
X0172717Y0135183*
X0172731Y0135194*
X0172744Y0135206*
X0172756Y0135218*
X0172767Y0135232*
X0172778Y0135246*
X0172787Y013526*
X0172795Y0135276*
X0172802Y0135292*
X0172808Y0135308*
X0172813Y0135325*
X0172817Y0135342*
X0172819Y0135359*
X017282Y0135377*
Y0135394*
X0172819Y0135412*
X0172817Y0135429*
X0172813Y0135446*
X0172808Y0135463*
X0172802Y0135479*
X0172795Y0135495*
X0172787Y013551*
X0172778Y0135525*
X0172767Y0135539*
X0172756Y0135553*
X0172744Y0135565*
X0172731Y0135577*
X0172717Y0135588*
X0172703Y0135598*
X0172688Y0135606*
X0172672Y0135614*
X0172656Y013562*
X0172639Y0135626*
X0172622Y013563*
X0172605Y0135633*
X0172588Y0135635*
X017257*
X0172553*
X0172536Y0135633*
X0172519Y013563*
X0172502Y0135626*
X0172485Y013562*
X0172469Y0135614*
X0172453Y0135606*
X0172438Y0135598*
X0172424Y0135588*
X017241Y0135577*
X0172397Y0135565*
X0172385Y0135553*
X0172373Y0135539*
X0172363Y0135525*
X0172354Y013551*
X0172346Y0135495*
X0172339Y0135479*
X0172333Y0135463*
X0172328Y0135446*
X0172324Y0135429*
X0172322Y0135412*
X0172321Y0135394*
Y0135377*
X0172322Y0135359*
X0172324Y0135342*
X0172328Y0135325*
X0172333Y0135308*
X0172339Y0135292*
X0172346Y0135276*
X0172354Y013526*
X0172363Y0135246*
X0172373Y0135232*
X0172385Y0135218*
X0172397Y0135206*
X017241Y0135194*
X0172424Y0135183*
X0172438Y0135173*
X0172453Y0135165*
X0172469Y0135157*
X0172485Y0135151*
X0172502Y0135145*
X0172519Y0135141*
X0172536Y0135138*
X0172553Y0135136*
X017257Y0135135*
X0135945Y0154143D02*
G01X0135928D01*
X0135911Y0154141*
X0135894Y0154138*
X0135877Y0154134*
X013586Y0154128*
X0135844Y0154122*
X0135828Y0154114*
X0135813Y0154105*
X0135799Y0154096*
X0135785Y0154085*
X0135772Y0154073*
X013576Y0154061*
X0135748Y0154047*
X0135738Y0154033*
X0135729Y0154018*
X0135721Y0154003*
X0135714Y0153987*
X0135708Y0153971*
X0135703Y0153954*
X0135699Y0153937*
X0135697Y015392*
X0135696Y0153902*
Y0153885*
X0135697Y0153867*
X0135699Y015385*
X0135703Y0153833*
X0135708Y0153816*
X0135714Y01538*
X0135721Y0153784*
X0135729Y0153768*
X0135738Y0153754*
X0135748Y015374*
X013576Y0153726*
X0135772Y0153714*
X0135785Y0153702*
X0135799Y0153691*
X0135813Y0153681*
X0135828Y0153673*
X0135844Y0153665*
X013586Y0153659*
X0135877Y0153653*
X0135894Y0153649*
X0135911Y0153646*
X0135928Y0153644*
X0135945Y0153642*
X0135963Y0153643*
X013598Y0153645*
X0135997Y0153648*
X0136014Y0153652*
X0136031Y0153658*
X0136047Y0153664*
X0136063Y0153672*
X0136078Y015368*
X0136092Y015369*
X0136106Y0153701*
X0136119Y0153713*
X0136131Y0153725*
X0136142Y0153739*
X0136153Y0153753*
X0136162Y0153767*
X013617Y0153783*
X0136177Y0153799*
X0136183Y0153815*
X0136188Y0153832*
X0136192Y0153849*
X0136194Y0153866*
X0136195Y0153884*
Y0153901*
X0136194Y0153919*
X0136192Y0153936*
X0136188Y0153953*
X0136183Y015397*
X0136177Y0153986*
X013617Y0154002*
X0136162Y0154017*
X0136153Y0154032*
X0136142Y0154046*
X0136131Y015406*
X0136119Y0154072*
X0136106Y0154084*
X0136092Y0154095*
X0136078Y0154105*
X0136063Y0154113*
X0136047Y0154121*
X0136031Y0154127*
X0136014Y0154133*
X0135997Y0154137*
X013598Y015414*
X0135963Y0154142*
X0135945Y0154143*
X0168411Y0147548D02*
G01X016943Y0148059D01*
X0168411Y0147548D02*
G01Y0148559D01*
X016943Y0148059*
X0169811Y0147348D02*
G01Y015765D01*
X0162409D02*
G01X0169811D01*
X0162409Y0147348D02*
G01Y015765D01*
Y0147348D02*
G01X0169811D01*
X0168662Y0134873D02*
G01X0169681Y0135384D01*
X0168662Y0134873D02*
G01Y0135884D01*
X0169681Y0135384*
X0170062Y0134673D02*
G01Y0144975D01*
X016266D02*
G01X0170062D01*
X016266Y0134673D02*
G01Y0144975D01*
Y0134673D02*
G01X0170062D01*
X0138834Y0153894D02*
G01X0139853Y0154404D01*
Y0153393D02*
G01Y0154404D01*
X0138834Y0153894D02*
G01X0139853Y0153393D01*
X0138453Y0144303D02*
G01Y0154605D01*
Y0144303D02*
G01X0145855D01*
Y0154605*
X0138453D02*
G01X0145855D01*
G54D43*
X0145388Y013637D02*
G01Y0136379D01*
X0145387Y0136388*
X0145386Y0136396*
X0145384Y0136405*
X0145381Y0136413*
X0145378Y0136421*
X0145374Y0136429*
X0145369Y0136437*
X0145365Y0136444*
X0145359Y0136451*
X0145353Y0136457*
X0145347Y0136463*
X014534Y0136469*
X0145333Y0136474*
X0145326Y0136479*
X0145318Y0136483*
X014531Y0136486*
X0145302Y0136489*
X0145294Y0136492*
X0145285Y0136494*
X0145277Y0136495*
X0145268*
X0145259*
X014525*
X0145242Y0136494*
X0145233Y0136492*
X0145225Y0136489*
X0145217Y0136486*
X0145209Y0136483*
X0145201Y0136479*
X0145194Y0136474*
X0145187Y0136469*
X014518Y0136463*
X0145174Y0136457*
X0145168Y0136451*
X0145162Y0136444*
X0145157Y0136437*
X0145153Y0136429*
X0145149Y0136421*
X0145146Y0136413*
X0145143Y0136405*
X0145141Y0136396*
X014514Y0136388*
X0145139Y0136379*
X0145138Y013637*
X0145139Y0136362*
X014514Y0136353*
X0145141Y0136344*
X0145143Y0136336*
X0145146Y0136328*
X0145149Y013632*
X0145153Y0136312*
X0145157Y0136304*
X0145162Y0136297*
X0145168Y013629*
X0145174Y0136284*
X014518Y0136278*
X0145187Y0136272*
X0145194Y0136267*
X0145201Y0136262*
X0145209Y0136258*
X0145217Y0136255*
X0145225Y0136252*
X0145233Y0136249*
X0145242Y0136247*
X014525Y0136246*
X0145259*
X0145268*
X0145277*
X0145285Y0136247*
X0145294Y0136249*
X0145302Y0136252*
X014531Y0136255*
X0145318Y0136258*
X0145326Y0136262*
X0145333Y0136267*
X014534Y0136272*
X0145347Y0136278*
X0145353Y0136284*
X0145359Y013629*
X0145365Y0136297*
X0145369Y0136304*
X0145374Y0136312*
X0145378Y013632*
X0145381Y0136328*
X0145384Y0136336*
X0145386Y0136344*
X0145387Y0136353*
X0145388Y0136362*
Y013637*
G54D44*
X0151918Y013324D02*
G01X0152018Y013334D01*
Y0133539*
X0151918Y0133639*
X0151518*
X0151418Y0133539*
Y013334*
X0151518Y013324*
X0151418Y013304D02*
G01X0152018D01*
Y013274*
X0151918Y013264*
X0151718*
X0151618Y013274*
Y013304*
X0152018Y013204D02*
G01Y013244D01*
X0151718*
X0151818Y013224*
Y013214*
X0151718Y013204*
X0151518*
X0151418Y013214*
Y013234*
X0151518Y013244*
X0152018Y013144D02*
G01X0151918Y013164D01*
X0151718Y013184*
X0151518*
X0151418Y013174*
Y013154*
X0151518Y013144*
X0151618*
X0151718Y013154*
Y013184*
X0145404Y013309D02*
G01X0145504Y013319D01*
Y0133389*
X0145404Y0133489*
X0145004*
X0144904Y0133389*
Y013319*
X0145004Y013309*
X0144904Y013289D02*
G01X0145504D01*
Y013259*
X0145404Y013249*
X0145204*
X0145104Y013259*
Y013289*
X0145504Y013189D02*
G01Y013229D01*
X0145204*
X0145304Y013209*
Y013199*
X0145204Y013189*
X0145004*
X0144904Y013199*
Y013219*
X0145004Y013229*
X0145504Y013129D02*
G01Y013169D01*
X0145204*
X0145304Y013149*
Y013139*
X0145204Y013129*
X0145004*
X0144904Y013139*
Y013159*
X0145004Y013169*
X0146372Y0134108D02*
G01Y0134507D01*
X0146572Y0134707*
X0146772Y0134507*
Y0134108*
Y0134407*
X0146372*
X0146972Y0134607D02*
G01X0147072Y0134707D01*
X0147272*
X0147372Y0134607*
Y0134507*
X0147272Y0134407*
X0147172*
X0147272*
X0147372Y0134307*
Y0134207*
X0147272Y0134108*
X0147072*
X0146972Y0134207*
X0156445Y0117489D02*
G01Y0117889D01*
X0156645Y0118089*
X0156845Y0117889*
Y0117489*
Y0117789*
X0156445*
X0157045Y0118089D02*
G01Y0117489D01*
X0157345*
X0157445Y0117589*
Y0117989*
X0157345Y0118089*
X0157045*
X0158044Y0117989D02*
G01X0157945Y0118089D01*
X0157745*
X0157645Y0117989*
Y0117589*
X0157745Y0117489*
X0157945*
X0158044Y0117589*
X0158244Y0117489D02*
G01X0158444D01*
X0158344*
Y0118089*
X0158244Y0117989*
X0162055Y0122371D02*
G01X0161955Y0122271D01*
Y0122071*
X0162055Y0121971*
X0162455*
X0162555Y0122071*
Y0122271*
X0162455Y0122371*
X0162555Y0122571D02*
G01X0161955D01*
Y0122871*
X0162055Y0122971*
X0162255*
X0162355Y0122871*
Y0122571*
X0162555Y012357D02*
G01Y0123171D01*
X0162155Y012357*
X0162055*
X0161955Y0123471*
Y0123271*
X0162055Y0123171*
X0161955Y012417D02*
G01Y012377D01*
X0162255*
X0162155Y012397*
Y012407*
X0162255Y012417*
X0162455*
X0162555Y012407*
Y012387*
X0162455Y012377*
X0163614Y0122321D02*
G01X0163514Y0122221D01*
Y0122021*
X0163614Y0121921*
X0164014*
X0164114Y0122021*
Y0122221*
X0164014Y0122321*
X0164114Y0122521D02*
G01X0163514D01*
Y0122821*
X0163614Y0122921*
X0163814*
X0163914Y0122821*
Y0122521*
X0164114Y012352D02*
G01Y0123121D01*
X0163714Y012352*
X0163614*
X0163514Y0123421*
Y0123221*
X0163614Y0123121*
X0163514Y012412D02*
G01X0163614Y012392D01*
X0163814Y012372*
X0164014*
X0164114Y012382*
Y012402*
X0164014Y012412*
X0163914*
X0163814Y012402*
Y012372*
X0152453Y0122665D02*
G01X0152353Y0122565D01*
Y0122365*
X0152453Y0122265*
X0152853*
X0152953Y0122365*
Y0122565*
X0152853Y0122665*
X0152953Y0122865D02*
G01X0152353D01*
Y0123165*
X0152453Y0123265*
X0152653*
X0152753Y0123165*
Y0122865*
X0152953Y0123864D02*
G01Y0123465D01*
X0152553Y0123864*
X0152453*
X0152353Y0123765*
Y0123565*
X0152453Y0123465*
X0152353Y0124064D02*
G01Y0124464D01*
X0152453*
X0152853Y0124064*
X0152953*
X0154164Y0122705D02*
G01X0154064Y0122605D01*
Y0122405*
X0154164Y0122305*
X0154564*
X0154664Y0122405*
Y0122605*
X0154564Y0122705*
X0154664Y0122905D02*
G01X0154064D01*
Y0123205*
X0154164Y0123305*
X0154364*
X0154464Y0123205*
Y0122905*
X0154664Y0123904D02*
G01Y0123505D01*
X0154264Y0123904*
X0154164*
X0154064Y0123805*
Y0123605*
X0154164Y0123505*
Y0124104D02*
G01X0154064Y0124204D01*
Y0124404*
X0154164Y0124504*
X0154264*
X0154364Y0124404*
X0154464Y0124504*
X0154564*
X0154664Y0124404*
Y0124204*
X0154564Y0124104*
X0154464*
X0154364Y0124204*
X0154264Y0124104*
X0154164*
X0154364Y0124204D02*
G01Y0124404D01*
X0150199Y0110824D02*
G01X0150099Y0110724D01*
Y0110524*
X0150199Y0110424*
X0150599*
X0150699Y0110524*
Y0110724*
X0150599Y0110824*
X0150699Y0111024D02*
G01X0150099D01*
Y0111324*
X0150199Y0111424*
X0150399*
X0150499Y0111324*
Y0111024*
X0150699Y0112023D02*
G01Y0111624D01*
X0150299Y0112023*
X0150199*
X0150099Y0111924*
Y0111724*
X0150199Y0111624*
X0150599Y0112223D02*
G01X0150699Y0112323D01*
Y0112523*
X0150599Y0112623*
X0150199*
X0150099Y0112523*
Y0112323*
X0150199Y0112223*
X0150299*
X0150399Y0112323*
Y0112623*
X0147299Y0110849D02*
G01X0147199Y0110749D01*
Y0110549*
X0147299Y0110449*
X0147699*
X0147799Y0110549*
Y0110749*
X0147699Y0110849*
X0147799Y0111049D02*
G01X0147199D01*
Y0111349*
X0147299Y0111449*
X0147499*
X0147599Y0111349*
Y0111049*
X0147299Y0111649D02*
G01X0147199Y0111749D01*
Y0111949*
X0147299Y0112048*
X0147399*
X0147499Y0111949*
Y0111849*
Y0111949*
X0147599Y0112048*
X0147699*
X0147799Y0111949*
Y0111749*
X0147699Y0111649*
X0147299Y0112248D02*
G01X0147199Y0112348D01*
Y0112548*
X0147299Y0112648*
X0147699*
X0147799Y0112548*
Y0112348*
X0147699Y0112248*
X0147299*
X0144249Y0110574D02*
G01X0144149Y0110474D01*
Y0110274*
X0144249Y0110174*
X0144649*
X0144749Y0110274*
Y0110474*
X0144649Y0110574*
X0144749Y0110774D02*
G01X0144149D01*
Y0111074*
X0144249Y0111174*
X0144449*
X0144549Y0111074*
Y0110774*
X0144249Y0111374D02*
G01X0144149Y0111474D01*
Y0111674*
X0144249Y0111773*
X0144349*
X0144449Y0111674*
Y0111574*
Y0111674*
X0144549Y0111773*
X0144649*
X0144749Y0111674*
Y0111474*
X0144649Y0111374*
X0144749Y0111973D02*
G01Y0112173D01*
Y0112073*
X0144149*
X0144249Y0111973*
X0141174Y0110724D02*
G01X0141074Y0110624D01*
Y0110424*
X0141174Y0110324*
X0141574*
X0141674Y0110424*
Y0110624*
X0141574Y0110724*
X0141674Y0110924D02*
G01X0141074D01*
Y0111224*
X0141174Y0111324*
X0141374*
X0141474Y0111224*
Y0110924*
X0141174Y0111524D02*
G01X0141074Y0111624D01*
Y0111824*
X0141174Y0111923*
X0141274*
X0141374Y0111824*
Y0111724*
Y0111824*
X0141474Y0111923*
X0141574*
X0141674Y0111824*
Y0111624*
X0141574Y0111524*
X0141674Y0112523D02*
G01Y0112123D01*
X0141274Y0112523*
X0141174*
X0141074Y0112423*
Y0112223*
X0141174Y0112123*
X0138024Y0110599D02*
G01X0137924Y0110499D01*
Y0110299*
X0138024Y0110199*
X0138424*
X0138524Y0110299*
Y0110499*
X0138424Y0110599*
X0138524Y0110799D02*
G01X0137924D01*
Y0111099*
X0138024Y0111199*
X0138224*
X0138324Y0111099*
Y0110799*
X0138024Y0111399D02*
G01X0137924Y0111499D01*
Y0111699*
X0138024Y0111798*
X0138124*
X0138224Y0111699*
Y0111599*
Y0111699*
X0138324Y0111798*
X0138424*
X0138524Y0111699*
Y0111499*
X0138424Y0111399*
X0138024Y0111998D02*
G01X0137924Y0112098D01*
Y0112298*
X0138024Y0112398*
X0138124*
X0138224Y0112298*
Y0112198*
Y0112298*
X0138324Y0112398*
X0138424*
X0138524Y0112298*
Y0112098*
X0138424Y0111998*
X0149949Y0116074D02*
G01X0149849Y0116174D01*
X0149649*
X0149549Y0116074*
Y0115674*
X0149649Y0115574*
X0149849*
X0149949Y0115674*
X0150149Y0115574D02*
G01Y0116174D01*
X0150449*
X0150549Y0116074*
Y0115874*
X0150449Y0115774*
X0150149*
X0150749Y0116074D02*
G01X0150849Y0116174D01*
X0151049*
X0151148Y0116074*
Y0115974*
X0151049Y0115874*
X0150949*
X0151049*
X0151148Y0115774*
Y0115674*
X0151049Y0115574*
X0150849*
X0150749Y0115674*
X0151648Y0115574D02*
G01Y0116174D01*
X0151348Y0115874*
X0151748*
X0149924Y0118999D02*
G01X0149824Y0119099D01*
X0149624*
X0149524Y0118999*
Y0118599*
X0149624Y0118499*
X0149824*
X0149924Y0118599*
X0150124Y0118499D02*
G01Y0119099D01*
X0150424*
X0150524Y0118999*
Y0118799*
X0150424Y0118699*
X0150124*
X0150724Y0118999D02*
G01X0150824Y0119099D01*
X0151024*
X0151123Y0118999*
Y0118899*
X0151024Y0118799*
X0150924*
X0151024*
X0151123Y0118699*
Y0118599*
X0151024Y0118499*
X0150824*
X0150724Y0118599*
X0151723Y0119099D02*
G01X0151323D01*
Y0118799*
X0151523Y0118899*
X0151623*
X0151723Y0118799*
Y0118599*
X0151623Y0118499*
X0151423*
X0151323Y0118599*
X0150024Y0121999D02*
G01X0149924Y0122099D01*
X0149724*
X0149624Y0121999*
Y0121599*
X0149724Y0121499*
X0149924*
X0150024Y0121599*
X0150224Y0121499D02*
G01Y0122099D01*
X0150524*
X0150624Y0121999*
Y0121799*
X0150524Y0121699*
X0150224*
X0150824Y0121999D02*
G01X0150924Y0122099D01*
X0151124*
X0151223Y0121999*
Y0121899*
X0151124Y0121799*
X0151024*
X0151124*
X0151223Y0121699*
Y0121599*
X0151124Y0121499*
X0150924*
X0150824Y0121599*
X0151823Y0122099D02*
G01X0151623Y0121999D01*
X0151423Y0121799*
Y0121599*
X0151523Y0121499*
X0151723*
X0151823Y0121599*
Y0121699*
X0151723Y0121799*
X0151423*
X0159914Y0101719D02*
G01X0159814Y0101619D01*
Y0101419*
X0159914Y0101319*
X0160314*
X0160414Y0101419*
Y0101619*
X0160314Y0101719*
X0160414Y0101919D02*
G01X0159814D01*
Y0102219*
X0159914Y0102319*
X0160114*
X0160214Y0102219*
Y0101919*
X0159914Y0102519D02*
G01X0159814Y0102619D01*
Y0102819*
X0159914Y0102918*
X0160014*
X0160114Y0102819*
Y0102719*
Y0102819*
X0160214Y0102918*
X0160314*
X0160414Y0102819*
Y0102619*
X0160314Y0102519*
X0159814Y0103118D02*
G01Y0103518D01*
X0159914*
X0160314Y0103118*
X0160414*
X0162189Y0101594D02*
G01X0162089Y0101494D01*
Y0101294*
X0162189Y0101194*
X0162589*
X0162689Y0101294*
Y0101494*
X0162589Y0101594*
X0162689Y0101794D02*
G01X0162089D01*
Y0102094*
X0162189Y0102194*
X0162389*
X0162489Y0102094*
Y0101794*
X0162189Y0102394D02*
G01X0162089Y0102494D01*
Y0102694*
X0162189Y0102793*
X0162289*
X0162389Y0102694*
Y0102594*
Y0102694*
X0162489Y0102793*
X0162589*
X0162689Y0102694*
Y0102494*
X0162589Y0102394*
X0162189Y0102993D02*
G01X0162089Y0103093D01*
Y0103293*
X0162189Y0103393*
X0162289*
X0162389Y0103293*
X0162489Y0103393*
X0162589*
X0162689Y0103293*
Y0103093*
X0162589Y0102993*
X0162489*
X0162389Y0103093*
X0162289Y0102993*
X0162189*
X0162389Y0103093D02*
G01Y0103293D01*
X0158195Y0122881D02*
G01X0158095Y0122781D01*
Y0122581*
X0158195Y0122481*
X0158595*
X0158695Y0122581*
Y0122781*
X0158595Y0122881*
X0158695Y0123081D02*
G01X0158095D01*
Y0123381*
X0158195Y0123481*
X0158395*
X0158495Y0123381*
Y0123081*
X0158195Y0123681D02*
G01X0158095Y0123781D01*
Y0123981*
X0158195Y012408*
X0158295*
X0158395Y0123981*
Y0123881*
Y0123981*
X0158495Y012408*
X0158595*
X0158695Y0123981*
Y0123781*
X0158595Y0123681*
Y012428D02*
G01X0158695Y012438D01*
Y012458*
X0158595Y012468*
X0158195*
X0158095Y012458*
Y012438*
X0158195Y012428*
X0158295*
X0158395Y012438*
Y012468*
X0159787Y0122814D02*
G01X0159687Y0122714D01*
Y0122514*
X0159787Y0122414*
X0160187*
X0160287Y0122514*
Y0122714*
X0160187Y0122814*
X0160287Y0123014D02*
G01X0159687D01*
Y0123314*
X0159787Y0123414*
X0159987*
X0160087Y0123314*
Y0123014*
X0160287Y0123914D02*
G01X0159687D01*
X0159987Y0123614*
Y0124013*
X0159787Y0124213D02*
G01X0159687Y0124313D01*
Y0124513*
X0159787Y0124613*
X0160187*
X0160287Y0124513*
Y0124313*
X0160187Y0124213*
X0159787*
X0158114Y0101644D02*
G01X0158014Y0101544D01*
Y0101344*
X0158114Y0101244*
X0158514*
X0158614Y0101344*
Y0101544*
X0158514Y0101644*
X0158614Y0101844D02*
G01X0158014D01*
Y0102144*
X0158114Y0102244*
X0158314*
X0158414Y0102144*
Y0101844*
X0158614Y0102744D02*
G01X0158014D01*
X0158314Y0102444*
Y0102843*
X0158614Y0103043D02*
G01Y0103243D01*
Y0103143*
X0158014*
X0158114Y0103043*
X0155698Y0122871D02*
G01X0155598Y0122771D01*
Y0122571*
X0155698Y0122471*
X0156098*
X0156198Y0122571*
Y0122771*
X0156098Y0122871*
X0156198Y0123071D02*
G01X0155598D01*
Y0123371*
X0155698Y0123471*
X0155898*
X0155998Y0123371*
Y0123071*
X0156198Y0123971D02*
G01X0155598D01*
X0155898Y0123671*
Y012407*
X0156198Y012467D02*
G01Y012427D01*
X0155798Y012467*
X0155698*
X0155598Y012457*
Y012437*
X0155698Y012427*
X0154139Y0101319D02*
G01X0154039Y0101219D01*
Y0101019*
X0154139Y0100919*
X0154539*
X0154639Y0101019*
Y0101219*
X0154539Y0101319*
X0154639Y0101519D02*
G01X0154039D01*
Y0101819*
X0154139Y0101919*
X0154339*
X0154439Y0101819*
Y0101519*
X0154639Y0102419D02*
G01X0154039D01*
X0154339Y0102119*
Y0102518*
X0154139Y0102718D02*
G01X0154039Y0102818D01*
Y0103018*
X0154139Y0103118*
X0154239*
X0154339Y0103018*
Y0102918*
Y0103018*
X0154439Y0103118*
X0154539*
X0154639Y0103018*
Y0102818*
X0154539Y0102718*
X0156489Y0101444D02*
G01X0156389Y0101344D01*
Y0101144*
X0156489Y0101044*
X0156889*
X0156989Y0101144*
Y0101344*
X0156889Y0101444*
X0156989Y0101644D02*
G01X0156389D01*
Y0101944*
X0156489Y0102044*
X0156689*
X0156789Y0101944*
Y0101644*
X0156989Y0102544D02*
G01X0156389D01*
X0156689Y0102244*
Y0102643*
X0156989Y0103143D02*
G01X0156389D01*
X0156689Y0102843*
Y0103243*
X0162989Y0157519D02*
G01X0162789D01*
X0162689Y0157419*
Y0157019*
X0162789Y0156919*
X0162989*
X0163089Y0157019*
Y0157419*
X0162989Y0157519*
X0163289Y0156919D02*
G01X0163489D01*
X0163389*
Y0157519*
X0163289Y0157419*
X0163789Y0156919D02*
G01Y0157319D01*
X0163989Y0157519*
X0164189Y0157319*
Y0156919*
Y0157219*
X0163789*
X0162274Y0088779D02*
G01Y0088179D01*
X0161974*
X0161874Y0088279*
Y0088479*
X0161974Y0088579*
X0162274*
X0161674Y0088779D02*
G01X0161474D01*
X0161574*
Y0088179*
X0161674Y0088279*
X0162349Y0097429D02*
G01X0162949D01*
Y0097129*
X0162849Y0097029*
X0162649*
X0162549Y0097129*
Y0097429*
Y0097229D02*
G01X0162349Y0097029D01*
X0162849Y0096829D02*
G01X0162949Y0096729D01*
Y0096529*
X0162849Y0096429*
X0162749*
X0162649Y0096529*
X0162549Y0096429*
X0162449*
X0162349Y0096529*
Y0096729*
X0162449Y0096829*
X0162549*
X0162649Y0096729*
X0162749Y0096829*
X0162849*
X0162649Y0096729D02*
G01Y0096529D01*
X0159799Y0097429D02*
G01X0160399D01*
Y0097129*
X0160299Y0097029*
X0160099*
X0159999Y0097129*
Y0097429*
Y0097229D02*
G01X0159799Y0097029D01*
X0159899Y0096829D02*
G01X0159799Y0096729D01*
Y0096529*
X0159899Y0096429*
X0160299*
X0160399Y0096529*
Y0096729*
X0160299Y0096829*
X0160199*
X0160099Y0096729*
Y0096429*
X0157174Y0097454D02*
G01X0157774D01*
Y0097154*
X0157674Y0097054*
X0157474*
X0157374Y0097154*
Y0097454*
Y0097254D02*
G01X0157174Y0097054D01*
Y0096854D02*
G01Y0096654D01*
Y0096754*
X0157774*
X0157674Y0096854*
Y0096354D02*
G01X0157774Y0096254D01*
Y0096054*
X0157674Y0095954*
X0157274*
X0157174Y0096054*
Y0096254*
X0157274Y0096354*
X0157674*
X0154699Y0097329D02*
G01X0155299D01*
Y0097029*
X0155199Y0096929*
X0154999*
X0154899Y0097029*
Y0097329*
Y0097129D02*
G01X0154699Y0096929D01*
Y0096729D02*
G01Y0096529D01*
Y0096629*
X0155299*
X0155199Y0096729*
X0154699Y0096229D02*
G01Y0096029D01*
Y0096129*
X0155299*
X0155199Y0096229*
X0152149Y0097429D02*
G01X0152749D01*
Y0097129*
X0152649Y0097029*
X0152449*
X0152349Y0097129*
Y0097429*
Y0097229D02*
G01X0152149Y0097029D01*
Y0096829D02*
G01Y0096629D01*
Y0096729*
X0152749*
X0152649Y0096829*
X0152149Y0095929D02*
G01Y0096329D01*
X0152549Y0095929*
X0152649*
X0152749Y0096029*
Y0096229*
X0152649Y0096329*
X0149624Y0097429D02*
G01X0150224D01*
Y0097129*
X0150124Y0097029*
X0149924*
X0149824Y0097129*
Y0097429*
Y0097229D02*
G01X0149624Y0097029D01*
Y0096829D02*
G01Y0096629D01*
Y0096729*
X0150224*
X0150124Y0096829*
Y0096329D02*
G01X0150224Y0096229D01*
Y0096029*
X0150124Y0095929*
X0150024*
X0149924Y0096029*
Y0096129*
Y0096029*
X0149824Y0095929*
X0149724*
X0149624Y0096029*
Y0096229*
X0149724Y0096329*
X0147099Y0097454D02*
G01X0147699D01*
Y0097154*
X0147599Y0097054*
X0147399*
X0147299Y0097154*
Y0097454*
Y0097254D02*
G01X0147099Y0097054D01*
Y0096854D02*
G01Y0096654D01*
Y0096754*
X0147699*
X0147599Y0096854*
X0147099Y0096054D02*
G01X0147699D01*
X0147399Y0096354*
Y0095954*
X0144524Y0097454D02*
G01X0145124D01*
Y0097154*
X0145024Y0097054*
X0144824*
X0144724Y0097154*
Y0097454*
Y0097254D02*
G01X0144524Y0097054D01*
Y0096854D02*
G01Y0096654D01*
Y0096754*
X0145124*
X0145024Y0096854*
X0145124Y0095954D02*
G01Y0096354D01*
X0144824*
X0144924Y0096154*
Y0096054*
X0144824Y0095954*
X0144624*
X0144524Y0096054*
Y0096254*
X0144624Y0096354*
X0152213Y0110239D02*
G01X0151613D01*
Y0110539*
X0151713Y0110639*
X0151913*
X0152013Y0110539*
Y0110239*
Y0110439D02*
G01X0152213Y0110639D01*
Y0110839D02*
G01Y0111039D01*
Y0110939*
X0151613*
X0151713Y0110839*
X0151613Y0111739D02*
G01X0151713Y0111539D01*
X0151913Y0111339*
X0152113*
X0152213Y0111439*
Y0111639*
X0152113Y0111739*
X0152013*
X0151913Y0111639*
Y0111339*
X0149213Y0110239D02*
G01X0148613D01*
Y0110539*
X0148713Y0110639*
X0148913*
X0149013Y0110539*
Y0110239*
Y0110439D02*
G01X0149213Y0110639D01*
Y0110839D02*
G01Y0111039D01*
Y0110939*
X0148613*
X0148713Y0110839*
X0148613Y0111339D02*
G01Y0111739D01*
X0148713*
X0149113Y0111339*
X0149213*
X0146218Y0110054D02*
G01X0145618D01*
Y0110354*
X0145718Y0110454*
X0145918*
X0146018Y0110354*
Y0110054*
Y0110254D02*
G01X0146218Y0110454D01*
Y0110654D02*
G01Y0110854D01*
Y0110754*
X0145618*
X0145718Y0110654*
Y0111154D02*
G01X0145618Y0111254D01*
Y0111454*
X0145718Y0111554*
X0145818*
X0145918Y0111454*
X0146018Y0111554*
X0146118*
X0146218Y0111454*
Y0111254*
X0146118Y0111154*
X0146018*
X0145918Y0111254*
X0145818Y0111154*
X0145718*
X0145918Y0111254D02*
G01Y0111454D01*
X0143168Y0110054D02*
G01X0142568D01*
Y0110354*
X0142668Y0110454*
X0142868*
X0142968Y0110354*
Y0110054*
Y0110254D02*
G01X0143168Y0110454D01*
Y0110654D02*
G01Y0110854D01*
Y0110754*
X0142568*
X0142668Y0110654*
X0143068Y0111154D02*
G01X0143168Y0111254D01*
Y0111454*
X0143068Y0111554*
X0142668*
X0142568Y0111454*
Y0111254*
X0142668Y0111154*
X0142768*
X0142868Y0111254*
Y0111554*
X0140143Y0110079D02*
G01X0139543D01*
Y0110379*
X0139643Y0110479*
X0139843*
X0139943Y0110379*
Y0110079*
Y0110279D02*
G01X0140143Y0110479D01*
Y0111079D02*
G01Y0110679D01*
X0139743Y0111079*
X0139643*
X0139543Y0110979*
Y0110779*
X0139643Y0110679*
Y0111279D02*
G01X0139543Y0111379D01*
Y0111579*
X0139643Y0111678*
X0140043*
X0140143Y0111579*
Y0111379*
X0140043Y0111279*
X0139643*
X0149354Y0114105D02*
G01Y0114705D01*
X0149654*
X0149754Y0114605*
Y0114405*
X0149654Y0114305*
X0149354*
X0149554D02*
G01X0149754Y0114105D01*
X0150354D02*
G01X0149954D01*
X0150354Y0114505*
Y0114605*
X0150254Y0114705*
X0150054*
X0149954Y0114605*
X0150554Y0114105D02*
G01X0150754D01*
X0150654*
Y0114705*
X0150554Y0114605*
X0149379Y011698D02*
G01Y011758D01*
X0149679*
X0149779Y011748*
Y011728*
X0149679Y011718*
X0149379*
X0149579D02*
G01X0149779Y011698D01*
X0150379D02*
G01X0149979D01*
X0150379Y011738*
Y011748*
X0150279Y011758*
X0150079*
X0149979Y011748*
X0150978Y011698D02*
G01X0150579D01*
X0150978Y011738*
Y011748*
X0150879Y011758*
X0150679*
X0150579Y011748*
X0149304Y012008D02*
G01Y012068D01*
X0149604*
X0149704Y012058*
Y012038*
X0149604Y012028*
X0149304*
X0149504D02*
G01X0149704Y012008D01*
X0150304D02*
G01X0149904D01*
X0150304Y012048*
Y012058*
X0150204Y012068*
X0150004*
X0149904Y012058*
X0150504D02*
G01X0150604Y012068D01*
X0150804*
X0150903Y012058*
Y012048*
X0150804Y012038*
X0150704*
X0150804*
X0150903Y012028*
Y012018*
X0150804Y012008*
X0150604*
X0150504Y012018*
X0179989Y0149844D02*
G01X0180589D01*
Y0149544*
X0180489Y0149444*
X0180289*
X0180189Y0149544*
Y0149844*
Y0149644D02*
G01X0179989Y0149444D01*
Y0148844D02*
G01Y0149244D01*
X0180389Y0148844*
X0180489*
X0180589Y0148944*
Y0149144*
X0180489Y0149244*
X0180089Y0148644D02*
G01X0179989Y0148544D01*
Y0148344*
X0180089Y0148245*
X0180489*
X0180589Y0148344*
Y0148544*
X0180489Y0148644*
X0180389*
X0180289Y0148544*
Y0148245*
X0174064Y0157869D02*
G01X0173464D01*
Y0158169*
X0173564Y0158269*
X0173764*
X0173864Y0158169*
Y0157869*
Y0158069D02*
G01X0174064Y0158269D01*
X0173564Y0158469D02*
G01X0173464Y0158569D01*
Y0158769*
X0173564Y0158869*
X0173664*
X0173764Y0158769*
Y0158669*
Y0158769*
X0173864Y0158869*
X0173964*
X0174064Y0158769*
Y0158569*
X0173964Y0158469*
X0173564Y0159069D02*
G01X0173464Y0159169D01*
Y0159369*
X0173564Y0159468*
X0173964*
X0174064Y0159369*
Y0159169*
X0173964Y0159069*
X0173564*
X0180014Y0156419D02*
G01X0180614D01*
Y0156119*
X0180514Y0156019*
X0180314*
X0180214Y0156119*
Y0156419*
Y0156219D02*
G01X0180014Y0156019D01*
Y0155419D02*
G01Y0155819D01*
X0180414Y0155419*
X0180514*
X0180614Y0155519*
Y0155719*
X0180514Y0155819*
Y0155219D02*
G01X0180614Y0155119D01*
Y0154919*
X0180514Y015482*
X0180414*
X0180314Y0154919*
X0180214Y015482*
X0180114*
X0180014Y0154919*
Y0155119*
X0180114Y0155219*
X0180214*
X0180314Y0155119*
X0180414Y0155219*
X0180514*
X0180314Y0155119D02*
G01Y0154919D01*
X0143818Y0136265D02*
G01Y0135665D01*
X0143518*
X0143418Y0135765*
Y0135965*
X0143518Y0136065*
X0143818*
X0143618D02*
G01X0143418Y0136265D01*
X0142818Y0135665D02*
G01X0143218D01*
Y0136265*
X0142818*
X0143218Y0135965D02*
G01X0143018D01*
X0142219Y0135665D02*
G01X0142618D01*
Y0135965*
X0142418*
X0142618*
Y0136265*
X0142019Y0135765D02*
G01X0141919Y0135665D01*
X0141719*
X0141619Y0135765*
Y0135865*
X0141719Y0135965*
X0141819*
X0141719*
X0141619Y0136065*
Y0136165*
X0141719Y0136265*
X0141919*
X0142019Y0136165*
X0141419Y0135665D02*
G01Y0136065D01*
X0141219Y0136265*
X0141019Y0136065*
Y0135665*
X0136367Y0126392D02*
G01X0136767D01*
X0136967Y0126192*
X0136767Y0125992*
X0136367*
X0136667*
Y0126392*
X0136367Y0125792D02*
G01Y0125592D01*
Y0125692*
X0136967*
X0136867Y0125792*
X0149522Y013984D02*
G01X0149622Y013994D01*
Y014014*
X0149522Y014024*
X0149122*
X0149022Y014014*
Y013994*
X0149122Y013984*
X0149022Y013964D02*
G01X0149622D01*
Y013934*
X0149522Y013924*
X0149322*
X0149222Y013934*
Y013964*
X0149022Y013904D02*
G01Y013884D01*
Y013894*
X0149622*
X0149522Y013904*
X0151076Y0140082D02*
G01X0151176Y0140182D01*
Y0140382*
X0151076Y0140482*
X0150676*
X0150576Y0140382*
Y0140182*
X0150676Y0140082*
X0150576Y0139882D02*
G01X0151176D01*
Y0139582*
X0151076Y0139482*
X0150876*
X0150776Y0139582*
Y0139882*
X0150576Y0138883D02*
G01Y0139282D01*
X0150976Y0138883*
X0151076*
X0151176Y0138982*
Y0139182*
X0151076Y0139282*
X0135823Y0139117D02*
G01X0135923Y0139217D01*
Y0139417*
X0135823Y0139517*
X0135423*
X0135323Y0139417*
Y0139217*
X0135423Y0139117*
X0135323Y0138917D02*
G01X0135923D01*
Y0138617*
X0135823Y0138517*
X0135623*
X0135523Y0138617*
Y0138917*
X0135823Y0138317D02*
G01X0135923Y0138217D01*
Y0138017*
X0135823Y0137918*
X0135723*
X0135623Y0138017*
Y0138117*
Y0138017*
X0135523Y0137918*
X0135423*
X0135323Y0138017*
Y0138217*
X0135423Y0138317*
X0135253Y0127661D02*
G01X0135353Y0127561D01*
X0135552*
X0135652Y0127661*
Y0128061*
X0135552Y0128161*
X0135353*
X0135253Y0128061*
X0135053Y0128161D02*
G01Y0127561D01*
X0134753*
X0134653Y0127661*
Y0127861*
X0134753Y0127961*
X0135053*
X0134453Y0128161D02*
G01X0134253D01*
X0134353*
Y0127561*
X0134453Y0127661*
X0133953Y0127561D02*
G01X0133553D01*
Y0127661*
X0133953Y0128061*
Y0128161*
X0135541Y0121447D02*
G01X013564Y0121347D01*
X013584*
X013594Y0121447*
Y0121847*
X013584Y0121947*
X013564*
X0135541Y0121847*
X0135341Y0121947D02*
G01Y0121347D01*
X0135041*
X0134941Y0121447*
Y0121647*
X0135041Y0121747*
X0135341*
X0134741Y0121947D02*
G01X0134541D01*
X0134641*
Y0121347*
X0134741Y0121447*
X0134241D02*
G01X0134141Y0121347D01*
X0133941*
X0133841Y0121447*
Y0121547*
X0133941Y0121647*
X0133841Y0121747*
Y0121847*
X0133941Y0121947*
X0134141*
X0134241Y0121847*
Y0121747*
X0134141Y0121647*
X0134241Y0121547*
Y0121447*
X0134141Y0121647D02*
G01X0133941D01*
X0133339Y0144884D02*
G01X0133239Y0144784D01*
Y0144584*
X0133339Y0144484*
X0133739*
X0133839Y0144584*
Y0144784*
X0133739Y0144884*
X0133839Y0145084D02*
G01X0133239D01*
Y0145384*
X0133339Y0145484*
X0133539*
X0133639Y0145384*
Y0145084*
X0133839Y0145984D02*
G01X0133239D01*
X0133539Y0145684*
Y0146083*
X0133239Y0146683D02*
G01Y0146283D01*
X0133539*
X0133439Y0146483*
Y0146583*
X0133539Y0146683*
X0133739*
X0133839Y0146583*
Y0146383*
X0133739Y0146283*
X0130839Y0144576D02*
G01X0130739Y0144476D01*
Y0144276*
X0130839Y0144176*
X0131239*
X0131339Y0144276*
Y0144476*
X0131239Y0144576*
X0131339Y0144776D02*
G01X0130739D01*
Y0145076*
X0130839Y0145176*
X0131039*
X0131139Y0145076*
Y0144776*
X0131339Y0145676D02*
G01X0130739D01*
X0131039Y0145376*
Y0145775*
X0130739Y0146375D02*
G01X0130839Y0146175D01*
X0131039Y0145975*
X0131239*
X0131339Y0146075*
Y0146275*
X0131239Y0146375*
X0131139*
X0131039Y0146275*
Y0145975*
X0148514Y0145009D02*
G01X0148414Y0144909D01*
Y0144709*
X0148514Y0144609*
X0148914*
X0149014Y0144709*
Y0144909*
X0148914Y0145009*
X0149014Y0145209D02*
G01X0148414D01*
Y0145509*
X0148514Y0145609*
X0148714*
X0148814Y0145509*
Y0145209*
X0149014Y0146109D02*
G01X0148414D01*
X0148714Y0145809*
Y0146208*
X0148414Y0146408D02*
G01Y0146808D01*
X0148514*
X0148914Y0146408*
X0149014*
X0150181Y0144784D02*
G01X0150081Y0144684D01*
Y0144484*
X0150181Y0144384*
X0150581*
X0150681Y0144484*
Y0144684*
X0150581Y0144784*
X0150681Y0144984D02*
G01X0150081D01*
Y0145284*
X0150181Y0145384*
X0150381*
X0150481Y0145284*
Y0144984*
X0150681Y0145884D02*
G01X0150081D01*
X0150381Y0145584*
Y0145983*
X0150181Y0146183D02*
G01X0150081Y0146283D01*
Y0146483*
X0150181Y0146583*
X0150281*
X0150381Y0146483*
X0150481Y0146583*
X0150581*
X0150681Y0146483*
Y0146283*
X0150581Y0146183*
X0150481*
X0150381Y0146283*
X0150281Y0146183*
X0150181*
X0150381Y0146283D02*
G01Y0146483D01*
X0133227Y0152568D02*
G01X0133127Y0152468D01*
Y0152268*
X0133227Y0152168*
X0133627*
X0133727Y0152268*
Y0152468*
X0133627Y0152568*
X0133727Y0152768D02*
G01X0133127D01*
Y0153068*
X0133227Y0153168*
X0133427*
X0133527Y0153068*
Y0152768*
X0133727Y0153668D02*
G01X0133127D01*
X0133427Y0153368*
Y0153767*
X0133627Y0153967D02*
G01X0133727Y0154067D01*
Y0154267*
X0133627Y0154367*
X0133227*
X0133127Y0154267*
Y0154067*
X0133227Y0153967*
X0133327*
X0133427Y0154067*
Y0154367*
X0130889Y0152324D02*
G01X0130789Y0152224D01*
Y0152024*
X0130889Y0151924*
X0131289*
X0131389Y0152024*
Y0152224*
X0131289Y0152324*
X0131389Y0152524D02*
G01X0130789D01*
Y0152824*
X0130889Y0152924*
X0131089*
X0131189Y0152824*
Y0152524*
X0130789Y0153523D02*
G01Y0153124D01*
X0131089*
X0130989Y0153324*
Y0153424*
X0131089Y0153523*
X0131289*
X0131389Y0153424*
Y0153224*
X0131289Y0153124*
X0130889Y0153723D02*
G01X0130789Y0153823D01*
Y0154023*
X0130889Y0154123*
X0131289*
X0131389Y0154023*
Y0153823*
X0131289Y0153723*
X0130889*
X0138511Y0140584D02*
G01X0138611Y0140684D01*
Y0140884*
X0138511Y0140984*
X0138111*
X0138011Y0140884*
Y0140684*
X0138111Y0140584*
X0138011Y0140384D02*
G01X0138611D01*
Y0140084*
X0138511Y0139984*
X0138311*
X0138211Y0140084*
Y0140384*
X0138611Y0139385D02*
G01Y0139784D01*
X0138311*
X0138411Y0139584*
Y0139484*
X0138311Y0139385*
X0138111*
X0138011Y0139484*
Y0139684*
X0138111Y0139784*
X0138011Y0139185D02*
G01Y0138985D01*
Y0139085*
X0138611*
X0138511Y0139185*
X0137911Y0138685D02*
G01Y0138285D01*
X0138611Y0138085D02*
G01Y0137685D01*
Y0137885*
X0138011*
Y0137485D02*
G01X0138411D01*
X0138611Y0137285*
X0138411Y0137085*
X0138011*
X0138311*
Y0137485*
X0138011Y0136885D02*
G01X0138611D01*
X0138011Y0136485*
X0138611*
Y0136286D02*
G01Y0135886D01*
Y0136086*
X0138011*
X0148589Y015265D02*
G01X0148489Y015255D01*
Y015235*
X0148589Y015225*
X0148989*
X0149089Y015235*
Y015255*
X0148989Y015265*
X0149089Y015285D02*
G01X0148489D01*
Y015315*
X0148589Y015325*
X0148789*
X0148889Y015315*
Y015285*
X0148489Y015385D02*
G01Y015345D01*
X0148789*
X0148689Y015365*
Y015375*
X0148789Y015385*
X0148989*
X0149089Y015375*
Y015355*
X0148989Y015345*
X0149089Y015405D02*
G01Y015425D01*
Y015415*
X0148489*
X0148589Y015405*
X0150114Y0152274D02*
G01X0150014Y0152174D01*
Y0151974*
X0150114Y0151874*
X0150514*
X0150614Y0151974*
Y0152174*
X0150514Y0152274*
X0150614Y0152474D02*
G01X0150014D01*
Y0152774*
X0150114Y0152874*
X0150314*
X0150414Y0152774*
Y0152474*
X0150014Y0153473D02*
G01Y0153074D01*
X0150314*
X0150214Y0153274*
Y0153374*
X0150314Y0153473*
X0150514*
X0150614Y0153374*
Y0153174*
X0150514Y0153074*
X0150614Y0154073D02*
G01Y0153673D01*
X0150214Y0154073*
X0150114*
X0150014Y0153973*
Y0153773*
X0150114Y0153673*
X016329Y0144744D02*
G01X016309D01*
X016299Y0144644*
Y0144244*
X016309Y0144144*
X016329*
X016339Y0144244*
Y0144644*
X016329Y0144744*
X016359Y0144144D02*
G01X016379D01*
X016369*
Y0144744*
X016359Y0144644*
X016409Y0144744D02*
G01Y0144144D01*
X016439*
X016449Y0144244*
Y0144344*
X016439Y0144444*
X016409*
X016439*
X016449Y0144544*
Y0144644*
X016439Y0144744*
X016409*
X0144849Y0154424D02*
G01X0144649D01*
X0144549Y0154324*
Y0153924*
X0144649Y0153824*
X0144849*
X0144949Y0153924*
Y0154324*
X0144849Y0154424*
X0145549Y0153824D02*
G01X0145149D01*
X0145549Y0154224*
Y0154324*
X0145449Y0154424*
X0145249*
X0145149Y0154324*
X012691Y0116928D02*
G01Y0117528D01*
X012721*
X012731Y0117428*
Y0117228*
X012721Y0117128*
X012691*
X012751Y0117528D02*
G01X012791D01*
Y0117428*
X012751Y0117028*
Y0116928*
X012811Y0117528D02*
G01Y0116928D01*
X012841*
X012851Y0117028*
Y0117128*
X012841Y0117228*
X012811*
X012841*
X012851Y0117328*
Y0117428*
X012841Y0117528*
X012811*
X0176186Y011896D02*
G01Y011956D01*
X0176486*
X0176586Y011946*
Y011926*
X0176486Y011916*
X0176186*
X0176786Y011956D02*
G01X0177186D01*
Y011946*
X0176786Y011906*
Y011896*
X0177386D02*
G01Y011936D01*
X0177586Y011956*
X0177786Y011936*
Y011896*
Y011926*
X0177386*
G54D45*
X0137071Y0162978D02*
G01Y016247D01*
Y0162724*
X013834*
X0138594Y016247*
Y0162216*
X013834Y0161962*
X0138594Y0163486D02*
G01X0137071D01*
Y0164247*
X0137325Y0164501*
X0137832*
X0138086Y0164247*
Y0163486*
X0137071Y0165009D02*
G01X0138086D01*
X0138594Y0165517*
X0138086Y0166025*
X0137071*
X0142429Y0097472D02*
G01X0143953D01*
Y009671*
X0143699Y0096456*
X0143191*
X0142937Y009671*
Y0097472*
Y0096964D02*
G01X0142429Y0096456D01*
Y0095948D02*
G01X0143953D01*
Y0095186*
X0143699Y0094932*
X0143191*
X0142937Y0095186*
Y0095948*
Y009544D02*
G01X0142429Y0094932D01*
G54D46*
X0162789Y0148177D02*
G01Y0147669D01*
Y0148177D02*
G01X0163007D01*
X0163079Y0148153*
X0163103Y0148129*
X0163128Y014808*
Y0148032*
X0163103Y0147983*
X0163079Y0147959*
X0163007Y0147935*
X0162789*
X0162958D02*
G01X0163128Y0147669D01*
X0163241Y0148177D02*
G01X0163362Y0147669D01*
X0163483Y0148177D02*
G01X0163362Y0147669D01*
X0163483Y0148177D02*
G01X0163604Y0147669D01*
X0163725Y0148177D02*
G01X0163604Y0147669D01*
X0163827Y0147887D02*
G01X0164262D01*
X0164412Y014808D02*
G01X016446Y0148104D01*
X0164533Y0148177*
Y0147669*
X0165075Y0148104D02*
G01X016505Y0148153D01*
X0164978Y0148177*
X0164929*
X0164857Y0148153*
X0164808Y014808*
X0164784Y0147959*
Y0147838*
X0164808Y0147742*
X0164857Y0147693*
X0164929Y0147669*
X0164954*
X0165026Y0147693*
X0165075Y0147742*
X0165099Y0147814*
Y0147838*
X0165075Y0147911*
X0165026Y0147959*
X0164954Y0147983*
X0164929*
X0164857Y0147959*
X0164808Y0147911*
X0164784Y0147838*
X016001Y0135008D02*
G01X0160518D01*
X016001D02*
G01Y0135226D01*
X0160034Y0135298*
X0160058Y0135322*
X0160107Y0135347*
X0160155*
X0160204Y0135322*
X0160228Y0135298*
X0160252Y0135226*
Y0135008*
Y0135177D02*
G01X0160518Y0135347D01*
X016001Y013546D02*
G01X0160518Y0135581D01*
X016001Y0135702D02*
G01X0160518Y0135581D01*
X016001Y0135702D02*
G01X0160518Y0135823D01*
X016001Y0135944D02*
G01X0160518Y0135823D01*
X01603Y0136046D02*
G01Y0136481D01*
X0160107Y0136631D02*
G01X0160083Y0136679D01*
X016001Y0136752*
X0160518*
X0160083Y0137294D02*
G01X0160034Y0137269D01*
X016001Y0137197*
Y0137148*
X0160034Y0137076*
X0160107Y0137027*
X0160228Y0137003*
X0160349*
X0160445Y0137027*
X0160494Y0137076*
X0160518Y0137148*
Y0137173*
X0160494Y0137245*
X0160445Y0137294*
X0160373Y0137318*
X0160349*
X0160276Y0137294*
X0160228Y0137245*
X0160204Y0137173*
Y0137148*
X0160228Y0137076*
X0160276Y0137027*
X0160349Y0137003*
X0148505Y015427D02*
G01X0147997D01*
X0148505D02*
G01Y0154052D01*
X0148481Y0153979*
X0148457Y0153955*
X0148408Y0153931*
X014836*
X0148311Y0153955*
X0148287Y0153979*
X0148263Y0154052*
Y015427*
Y01541D02*
G01X0147997Y0153931D01*
X0148505Y0153817D02*
G01X0147997Y0153696D01*
X0148505Y0153575D02*
G01X0147997Y0153696D01*
X0148505Y0153575D02*
G01X0147997Y0153455D01*
X0148505Y0153334D02*
G01X0147997Y0153455D01*
X0148215Y0153232D02*
G01Y0152797D01*
X0148408Y0152647D02*
G01X0148432Y0152598D01*
X0148505Y0152526*
X0147997*
X0148432Y0151984D02*
G01X0148481Y0152008D01*
X0148505Y0152081*
Y0152129*
X0148481Y0152202*
X0148408Y015225*
X0148287Y0152274*
X0148166*
X014807Y015225*
X0148021Y0152202*
X0147997Y0152129*
Y0152105*
X0148021Y0152032*
X014807Y0151984*
X0148142Y015196*
X0148166*
X0148239Y0151984*
X0148287Y0152032*
X0148311Y0152105*
Y0152129*
X0148287Y0152202*
X0148239Y015225*
X0148166Y0152274*
G54D47*
X0136582Y0091113D02*
G01X0137428D01*
X0136582Y0090267*
Y0090055*
X0136793Y0089843*
X0137216*
X0137428Y0090055*
X0136158D02*
G01X0135947Y0089843D01*
X0135524*
X0135312Y0090055*
Y0090901*
X0135524Y0091113*
X0135947*
X0136158Y0090901*
Y0090055*
X0137428Y0093653D02*
G01X0137005D01*
X0137216*
Y0092383*
X0137428Y0092595*
X013637Y0093441D02*
G01X0136158Y0093653D01*
X0135735*
X0135524Y0093441*
Y0092595*
X0135735Y0092383*
X0136158*
X013637Y0092595*
Y0092807*
X0136158Y0093018*
X0135524*
X0164352Y0093653D02*
G01X0163929D01*
X016414*
Y0092383*
X0164352Y0092595*
X0163506Y0091113D02*
G01X0164352D01*
X0163506Y0090267*
Y0090055*
X0163717Y0089843*
X016414*
X0164352Y0090055*
M02*
