%FSTAX43Y43*%
%MOMM*%
%SFA1B1*%

%IPPOS*%
%ADD13R,0.699999X0.899998*%
%ADD15R,1.099998X0.999998*%
%ADD18R,0.899998X0.699999*%
%ADD28C,0.499999*%
%ADD29C,0.299999*%
%ADD30C,0.799998*%
%ADD32C,0.999998*%
%ADD33C,0.399999*%
%ADD36R,1.499997X1.499997*%
%ADD37C,1.499997*%
%ADD38C,1.269997*%
%ADD39R,1.199998X0.549999*%
%ADD40O,1.199998X0.549999*%
%LNpcb1-1*%
%LPD*%
G36*
X0138032Y0139912D02*
X0139132D01*
X0139252*
X0139605Y0139558*
Y0138765*
X0139554Y0138754*
X0139397Y0138649*
X0139292Y0138492*
X0139255Y0138307*
X0139292Y0138122*
X0139397Y0137965*
X0139554Y013786*
X0139397Y0137699*
X0139292Y0137542*
X013928Y0137484*
X0140064*
Y013723*
X013928*
X0139292Y0137172*
X0139397Y0137015*
X0139264Y0136882*
Y0135932*
X0139605*
Y0135169*
X013964Y0134993*
X013974Y0134845*
X013978Y0134804*
Y0134333*
Y0133909*
Y0133716*
X0139766Y0133707*
X0139634Y0133508*
X0139615Y0133415*
X0135499Y0129299*
Y0120074*
X0132736*
Y0122235*
X0132689Y0122469*
X0132629Y0122559*
Y0122581*
Y0122709*
Y0122935*
Y0123185*
Y0123289*
Y0123458*
X0132079*
Y0123585*
X0131952*
Y0124235*
X0131778*
X0131529*
X0131424Y012434*
Y01365*
X013179Y0137048*
X013181Y0137065*
X0131978Y0137031*
X0132154Y0137066*
X0132302Y0137166*
X0132402Y0137314*
X0132437Y013749*
Y013766*
X0134563*
X0134689Y0137635*
X0134815Y013766*
X0134914*
X013509Y0137695*
X0135238Y0137795*
X0135338Y0137943*
X0135373Y0138119*
X0135338Y0138295*
X0135238Y0138443*
X0135148Y0138504*
Y0140004*
X0135434*
X0135634*
X0135788*
X0137134*
Y0140135*
X0138032*
Y0139912*
G37*
G36*
Y0142245D02*
Y0141989D01*
X0138582*
Y0141735*
X0138032*
Y0141566*
Y0141212*
Y0141053*
X0137134*
Y0141404*
X0135788*
X0135634*
X0135534*
X0135434*
X013528*
X0133934*
Y0141158*
X0133405*
X013332Y014127*
X0133145Y0141403*
X0132942Y0141488*
X0132724Y0141516*
X0132506Y0141488*
X0132303Y0141403*
X0132128Y014127*
X0131995Y0141095*
X0131914Y0140901*
X0131424Y0140999*
Y0141524*
X0132499Y0142599*
X0137678*
X0138032Y0142245*
G37*
G36*
X0167199Y0157699D02*
Y0145865D01*
X0166726Y0145704*
X0166638Y0145818*
X0165813Y0146643*
X0165667Y0146755*
X0165497Y0146826*
X0165314Y014685*
X0164766*
X0164735Y0146873*
X0164532Y0146958*
X0164314Y0146986*
X0164096Y0146958*
X0163893Y0146873*
X0163718Y014674*
X0163585Y0146565*
X01635Y0146362*
X0163472Y0146144*
X01635Y0145926*
X0163585Y0145723*
X0163718Y0145548*
X0163893Y0145415*
X0164096Y014533*
X0164314Y0145302*
X0164532Y014533*
X0164735Y0145415*
X0164766Y0145438*
X0165022*
X0165433Y0145027*
Y0135424*
X0148969*
X0148887Y0135531*
X0148718Y0135872*
X0148805Y0135986*
X014889Y0136189*
X0148918Y0136407*
X014889Y0136625*
X0148805Y0136828*
X0148672Y0137003*
X0148497Y0137136*
X0148294Y0137221*
X0148076Y0137249*
X0147858Y0137221*
X0147655Y0137136*
X014748Y0137003*
X0147376Y0136866*
X0143994*
X0143719Y013705*
X0143552Y0137252*
X0143573Y0137357*
X0143536Y0137542*
X0143431Y0137699*
X0143274Y0137804*
X0143358Y013789*
X0143431Y0137965*
X0143536Y0138122*
X0143573Y0138307*
X0143536Y0138492*
X0143431Y0138649*
X0143274Y0138754*
X0143089Y0138791*
X0142439*
X0142254Y0138754*
X0142212Y0138727*
X0141614*
X0141458Y0138696*
X0141326Y0138607*
X0141265Y0138547*
X0140767Y0138596*
X0140731Y0138649*
X0140574Y0138754*
X0140523Y0138765*
Y0139912*
X0141164*
Y014006*
X0142664*
X014284Y0140095*
X0142988Y0140195*
X0143088Y0140343*
X0143123Y0140519*
X0143088Y0140695*
X0142988Y0140843*
X014284Y0140943*
X0142664Y0140978*
X0141398*
X0141164Y0141212*
Y0141454*
Y0141566*
Y0141735*
X0140614*
Y0141862*
X0140487*
Y0142512*
X014009*
X0139899Y0142974*
X0140874Y0143949*
Y0153299*
X0146574Y0158999*
X0165899*
X0167199Y0157699*
G37*
G36*
X0148275Y0129121D02*
X014836Y0128918D01*
X0148493Y0128743*
X0148668Y012861*
X0148871Y0128525*
X0149089Y0128497*
X0149307Y0128525*
X014951Y012861*
X0149685Y0128743*
X0149818Y0128918*
X0149869Y0129041*
X0150125Y0129092*
X0150449Y0129049*
X0151574Y0127924*
X0159699*
Y0127899*
X0162524Y0125074*
Y0108674*
X0166774Y0104424*
Y0090874*
X0165424Y0089524*
X0162799*
X0162648Y0089721*
X0162524Y0089972*
X0162642Y0090126*
X0162738Y0090357*
X0162753Y0090478*
X0160871*
X0160886Y0090357*
X0160982Y0090126*
X01611Y0089972*
X0160976Y0089721*
X0160825Y0089524*
X0160259*
X0160108Y0089721*
X0159984Y0089972*
X0160102Y0090126*
X0160198Y0090357*
X0160213Y0090478*
X0158331*
X0158346Y0090357*
X0158442Y0090126*
X015856Y0089972*
X0158436Y0089721*
X0158285Y0089524*
X0157719*
X0157568Y0089721*
X0157444Y0089972*
X0157562Y0090126*
X0157658Y0090357*
X0157673Y0090478*
X0155791*
X0155806Y0090357*
X0155902Y0090126*
X015602Y0089972*
X0155896Y0089721*
X0155745Y0089524*
X0155179*
X0155028Y0089721*
X0154904Y0089972*
X0155022Y0090126*
X0155118Y0090357*
X0155133Y0090478*
X0153251*
X0153266Y0090357*
X0153362Y0090126*
X015348Y0089972*
X0153356Y0089721*
X0153205Y0089524*
X0152639*
X0152488Y0089721*
X0152364Y0089972*
X0152482Y0090126*
X0152578Y0090357*
X0152593Y0090478*
X0150711*
X0150726Y0090357*
X0150822Y0090126*
X015094Y0089972*
X0150816Y0089721*
X0150665Y0089524*
X0150099*
X0149948Y0089721*
X0149824Y0089972*
X0149942Y0090126*
X0150038Y0090357*
X0150053Y0090478*
X0148171*
X0148186Y0090357*
X0148282Y0090126*
X01484Y0089972*
X0148276Y0089721*
X0148125Y0089524*
X0147559*
X0147408Y0089721*
X0147284Y0089972*
X0147402Y0090126*
X0147498Y0090357*
X0147513Y0090478*
X0145631*
X0145646Y0090357*
X0145742Y0090126*
X014586Y0089972*
X0145736Y0089721*
X0145585Y0089524*
X0145019*
X0144868Y0089721*
X0144744Y0089972*
X0144862Y0090126*
X0144958Y0090357*
X0144973Y0090478*
X0143091*
X0143106Y0090357*
X0143202Y0090126*
X014332Y0089972*
X0143196Y0089721*
X0143045Y0089524*
X0142479*
X0142328Y0089721*
X0142204Y0089972*
X0142322Y0090126*
X0142418Y0090357*
X0142433Y0090478*
X0140551*
X0140566Y0090357*
X0140662Y0090126*
X014078Y0089972*
X0140656Y0089721*
X0140505Y0089524*
X0139939*
X0139788Y0089721*
X0139664Y0089972*
X0139782Y0090126*
X0139878Y0090357*
X013991Y0090605*
X0139878Y0090853*
X0139782Y0091084*
X013963Y0091283*
X0139561Y0091335*
Y0092415*
X013963Y0092467*
X0139782Y0092666*
X0139878Y0092897*
X013991Y0093145*
X0139879Y0093385*
X0139991Y009344*
X0140144Y0093503*
X0140541Y0093199*
X0140534Y0093145*
X0140566Y0092897*
X0140662Y0092666*
X0140814Y0092467*
X0141013Y0092315*
X0141244Y0092219*
X0141492Y0092187*
X014174Y0092219*
X0141971Y0092315*
X014217Y0092467*
X0142322Y0092666*
X0142418Y0092897*
X014245Y0093145*
X0142418Y0093393*
X0142322Y0093624*
X014217Y0093823*
X0141971Y0093975*
X014174Y0094071*
X014157Y0094093*
X0141368Y0094295*
X0141604Y0094736*
X0141724Y0094712*
X0143196*
X0143437Y0094471*
Y0093886*
X0143354Y0093823*
X0143202Y0093624*
X0143106Y0093393*
X0143074Y0093145*
X0143106Y0092897*
X0143202Y0092666*
X0143354Y0092467*
X0143553Y0092315*
X0143784Y0092219*
X0144032Y0092187*
X014428Y0092219*
X0144511Y0092315*
X014471Y0092467*
X0144862Y0092666*
X0144958Y0092897*
X014499Y0093145*
X0144958Y0093393*
X0144862Y0093624*
X014471Y0093823*
X0144661Y009386*
Y0094724*
X0144614Y0094958*
X0144482Y0095157*
X0143882Y0095757*
X0143906Y0095837*
X0145121*
X0145887Y0095071*
Y0093813*
X0145742Y0093624*
X0145646Y0093393*
X0145614Y0093145*
X0145646Y0092897*
X0145742Y0092666*
X0145894Y0092467*
X0146093Y0092315*
X0146324Y0092219*
X0146572Y0092187*
X014682Y0092219*
X0147051Y0092315*
X014725Y0092467*
X0147402Y0092666*
X0147498Y0092897*
X014753Y0093145*
X0147498Y0093393*
X0147402Y0093624*
X014725Y0093823*
X0147111Y0093929*
Y0095324*
X0147064Y0095558*
X0147011Y0095638*
X0146932Y0095757*
X0145807Y0096882*
X0145608Y0097014*
X0145374Y0097061*
X0145576Y0097262*
X0147446*
X0148487Y0096221*
Y0093863*
X0148434Y0093823*
X0148282Y0093624*
X0148186Y0093393*
X0148154Y0093145*
X0148186Y0092897*
X0148282Y0092666*
X0148434Y0092467*
X0148633Y0092315*
X0148864Y0092219*
X0149112Y0092187*
X014936Y0092219*
X0149591Y0092315*
X014979Y0092467*
X0149942Y0092666*
X0150038Y0092897*
X015007Y0093145*
X0150038Y0093393*
X0149942Y0093624*
X014979Y0093823*
X0149711Y0093883*
Y0096474*
X0149664Y0096708*
X0149611Y0096788*
X0149532Y0096907*
X0148132Y0098307*
X0147933Y0098439*
X0147699Y0098486*
X0148025Y0098812*
X0149471*
X0151062Y0097221*
Y009389*
X0150974Y0093823*
X0150822Y0093624*
X0150726Y0093393*
X0150694Y0093145*
X0150726Y0092897*
X0150822Y0092666*
X0150974Y0092467*
X0151173Y0092315*
X0151404Y0092219*
X0151652Y0092187*
X01519Y0092219*
X0152131Y0092315*
X015233Y0092467*
X0152482Y0092666*
X0152578Y0092897*
X015261Y0093145*
X0152578Y0093393*
X0152482Y0093624*
X015233Y0093823*
X0152286Y0093856*
Y0097474*
X0152239Y0097708*
X0152107Y0097907*
X0150413Y00996*
X0150604Y0100062*
X0151546*
X0153487Y0098121*
Y0093787*
X0153362Y0093624*
X0153266Y0093393*
X0153234Y0093145*
X0153266Y0092897*
X0153362Y0092666*
X0153514Y0092467*
X0153713Y0092315*
X0153944Y0092219*
X0154192Y0092187*
X015444Y0092219*
X0154671Y0092315*
X015487Y0092467*
X0155022Y0092666*
X0155118Y0092897*
X015515Y0093145*
X0155118Y0093393*
X0155022Y0093624*
X015487Y0093823*
X0154711Y0093944*
Y0098374*
X0154664Y0098608*
X0154532Y0098807*
X0152488Y010085*
X0152679Y0101312*
X0154096*
X0155987Y0099421*
Y0093735*
X0155902Y0093624*
X0155806Y0093393*
X0155774Y0093145*
X0155806Y0092897*
X0155902Y0092666*
X0156054Y0092467*
X0156253Y0092315*
X0156484Y0092219*
X0156732Y0092187*
X015698Y0092219*
X0157211Y0092315*
X015741Y0092467*
X0157562Y0092666*
X0157658Y0092897*
X015769Y0093145*
X0157658Y0093393*
X0157562Y0093624*
X015741Y0093823*
X0157211Y0093975*
Y0099674*
X0157164Y0099908*
X0157032Y0100107*
X0154782Y0102357*
X0154583Y0102489*
X0154581Y010249*
X015463Y0102987*
X0155521*
X0158612Y0099896*
Y0093836*
X0158594Y0093823*
X0158442Y0093624*
X0158346Y0093393*
X0158314Y0093145*
X0158346Y0092897*
X0158442Y0092666*
X0158594Y0092467*
X0158793Y0092315*
X0159024Y0092219*
X0159272Y0092187*
X015952Y0092219*
X0159751Y0092315*
X015995Y0092467*
X0160102Y0092666*
X0160198Y0092897*
X016023Y0093145*
X0160198Y0093393*
X0160102Y0093624*
X015995Y0093823*
X0159836Y009391*
Y0100149*
X0159789Y0100383*
X0159657Y0100582*
X0156207Y0104032*
X0156031Y0104149*
X0156176Y0104627*
X0157281*
X0161112Y0100796*
Y0094095*
X0160862*
Y0092195*
X0162762*
Y0094095*
X0162336*
Y0101049*
X0162289Y0101283*
X0162157Y0101482*
X0157967Y0105672*
X0157768Y0105804*
X0157534Y0105851*
X0152528*
X0152375Y0105968*
X0152172Y0106052*
X0151954Y0106081*
X0151736Y0106052*
X0151533Y0105968*
X0151358Y0105835*
X0151225Y010566*
X015114Y0105457*
X0151112Y0105239*
X015114Y0105021*
X0151225Y0104818*
X0151346Y0104659*
X0151303Y0104571*
X0151026Y0104211*
X0149902*
X0149661Y0104452*
Y0104824*
X0149743Y0105021*
X0149771Y0105239*
X0149743Y0105457*
X0149658Y010566*
X0149525Y0105835*
X014935Y0105968*
X0149147Y0106052*
X0148929Y0106081*
X0148711Y0106052*
X0148508Y0105968*
X0148333Y0105835*
X01482Y010566*
X0148115Y0105457*
X0148087Y0105239*
X0148115Y0105021*
X01482Y0104818*
X0148333Y0104643*
X0148437Y0104564*
Y0104199*
X0148484Y0103965*
X0148616Y0103766*
X0149216Y0103166*
X0149415Y0103034*
X0149417Y0103033*
X0149368Y0102536*
X0147827*
X0146636Y0103727*
Y0104639*
X0146688Y0104708*
X0146773Y0104911*
X0146801Y0105129*
X0146773Y0105347*
X0146688Y010555*
X0146555Y0105725*
X014638Y0105858*
X0146177Y0105942*
X0145959Y0105971*
X0145741Y0105942*
X0145538Y0105858*
X0145363Y0105725*
X014523Y010555*
X0145145Y0105347*
X0145117Y0105129*
X0145145Y0104911*
X014523Y0104708*
X0145363Y0104533*
X0145412Y0104496*
Y0103474*
X0145459Y010324*
X0145591Y0103041*
X0146885Y0101748*
X0146694Y0101286*
X0145377*
X0143536Y0103127*
Y0104544*
X0143555Y0104558*
X0143688Y0104733*
X0143773Y0104936*
X0143801Y0105154*
X0143773Y0105372*
X0143688Y0105575*
X0143555Y010575*
X014338Y0105883*
X0143177Y0105967*
X0142959Y0105996*
X0142741Y0105967*
X0142538Y0105883*
X0142363Y010575*
X014223Y0105575*
X0142145Y0105372*
X0142117Y0105154*
X0142145Y0104936*
X014223Y0104733*
X0142312Y0104625*
Y0102874*
X0142359Y010264*
X0142491Y0102441*
X0144435Y0100498*
X0144244Y0100036*
X0143477*
X0140511Y0103002*
Y0104657*
X0140588Y0104758*
X0140673Y0104961*
X0140701Y0105179*
X0140673Y0105397*
X0140588Y01056*
X0140455Y0105775*
X014028Y0105908*
X0140077Y0105992*
X0139859Y0106021*
X0139641Y0105992*
X0139438Y0105908*
X0139263Y0105775*
X013913Y01056*
X0139045Y0105397*
X0139017Y0105179*
X0139045Y0104961*
X013913Y0104758*
X0139263Y0104583*
X0139287Y0104565*
Y0102749*
X0139334Y0102515*
X0139348Y0102494*
X0138961Y0102177*
X0137636Y0103502*
Y0111421*
X0139967Y0113752*
X014388*
X0144033Y0113635*
X0144236Y011355*
X0144454Y0113522*
X0144672Y011355*
X0144875Y0113635*
X014505Y0113768*
X0145183Y0113943*
X0145267Y0114146*
X0145296Y0114364*
X0145267Y0114582*
X0145183Y0114785*
X014505Y011496*
X0144875Y0115093*
X0144672Y0115177*
X0144454Y0115206*
X0144236Y0115177*
X0144033Y0115093*
X014388Y0114976*
X0140344*
X0140153Y0115438*
X0141381Y0116666*
X0143941*
X0144094Y0116549*
X0144297Y0116464*
X0144515Y0116436*
X0144733Y0116464*
X0144936Y0116549*
X0145111Y0116682*
X0145244Y0116857*
X0145328Y011706*
X0145357Y0117278*
X0145328Y0117496*
X0145244Y0117699*
X0145111Y0117874*
X0144936Y0118007*
X0144733Y0118091*
X0144515Y011812*
X0144297Y0118091*
X0144094Y0118007*
X0143941Y011789*
X0141833*
X0141642Y0118352*
X0143002Y0119712*
X0144019*
X014417Y0119597*
X0144373Y0119512*
X0144591Y0119484*
X0144809Y0119512*
X0145012Y0119597*
X0145187Y011973*
X014532Y0119905*
X0145405Y0120108*
X0145433Y0120326*
X0145405Y0120544*
X014532Y0120747*
X0145187Y0120922*
X0145012Y0121055*
X0144809Y012114*
X0144591Y0121168*
X0144373Y012114*
X014417Y0121055*
X0144014Y0120936*
X0142754*
X0142744Y012096*
X0142641Y0121476*
X0143977Y0122812*
X0148225*
X0148378Y0122695*
X0148581Y012261*
X0148799Y0122582*
X0149017Y012261*
X014922Y0122695*
X0149395Y0122828*
X0149528Y0123003*
X0149613Y0123206*
X0149641Y0123424*
X0149613Y0123642*
X0149528Y0123845*
X0149395Y012402*
X014922Y0124153*
X0149017Y0124238*
X0148799Y0124266*
X0148581Y0124238*
X0148378Y0124153*
X0148225Y0124036*
X0143724*
X014349Y0123989*
X0143291Y0123857*
X0141398Y0121963*
X0140936Y0122154*
Y0129299*
X0148252*
X0148275Y0129121*
G37*
G36*
X0181724Y0165399D02*
Y0120999D01*
X0174499*
Y0125263*
X0174685Y012534*
X017486Y0125473*
X0174993Y0125648*
X0175078Y0125851*
X0175106Y0126069*
X0175078Y0126287*
X0174993Y012649*
X017486Y0126665*
X0174723Y0126769*
Y0127619*
X0174688Y0127795*
X0174588Y0127943*
X0174499Y0128033*
Y0132299*
X0173274Y0133524*
X0170249*
X0167749Y0136024*
Y0157924*
X0166199Y0159474*
X0146524*
X0140449Y0153399*
Y0144024*
X0139825Y01434*
X0138539*
X0138356Y0143376*
X0138186Y0143305*
X013804Y0143193*
X0137928Y0143047*
X0137897Y0142974*
X0131574*
X0130749Y0142149*
Y0121799*
X0130099Y0121149*
X0124049*
Y0165799*
X0125699Y0167449*
X0179674*
X0181724Y0165399*
G37*
G36*
X0139712Y0122302D02*
X0130516Y0113107D01*
X0130384Y0112908*
X0130337Y0112674*
Y0095099*
X0130384Y0094865*
X0130516Y0094666*
X0132541Y0092641*
X013274Y0092509*
X0132974Y0092462*
X0138281*
X0138337Y0092419*
Y0091331*
X0138274Y0091283*
X0138122Y0091084*
X0138026Y0090853*
X0137994Y0090605*
X0138026Y0090357*
X0138122Y0090126*
X013824Y0089972*
X0138116Y0089721*
X0137965Y0089524*
X0130749*
X0127399Y0092874*
Y0106237*
X0128965*
Y0108137*
X0127728*
X0127552Y0108605*
X0127775Y01088*
X0128015Y0108769*
X0128263Y0108801*
X0128494Y0108897*
X0128693Y0109049*
X0128845Y0109248*
X0128941Y0109479*
X0128973Y0109727*
X0128941Y0109975*
X0128845Y0110206*
X0128693Y0110405*
X0128494Y0110557*
X0128263Y0110653*
X0128015Y0110685*
X0127961Y0110678*
X0127716Y0110997*
X0127961Y0111316*
X0127888Y0111325*
Y011214*
X0127074*
X0127089Y0112025*
X012708Y0112015*
X0126196Y0111649*
X0124374*
Y0119949*
X0124376Y0119974*
X0132562*
X0132592Y011993*
X0132658Y0119886*
X0132736Y011987*
X0135499*
X0135577Y0119886*
X0135643Y011993*
X0135673Y0119974*
X0135974*
Y0129299*
X0139712*
Y0122302*
G37*
G36*
X0155471Y0134443D02*
X0155484Y0134412D01*
X0154722Y013365*
X0154266*
X0154235Y0133673*
X0154032Y0133758*
X0153814Y0133786*
X0153596Y0133758*
X0153393Y0133673*
X0153218Y013354*
X0153085Y0133365*
X0153Y0133162*
X0152972Y0132944*
X0153Y0132726*
X0153085Y0132523*
X0153218Y0132348*
X0153393Y0132215*
X0153596Y013213*
X0153814Y0132102*
X0154032Y013213*
X0154235Y0132215*
X0154266Y0132238*
X0155014*
X0155197Y0132262*
X0155367Y0132333*
X0155513Y0132445*
X0156281Y0133213*
X0163962*
X0163993Y013319*
X0164196Y0133105*
X0164414Y0133077*
X0164632Y0133105*
X0164835Y013319*
X0164866Y0133213*
X0165214*
X0165397Y0133237*
X0165567Y0133308*
X0165713Y013342*
X0166638Y0134345*
X016675Y0134491*
X0166821Y0134661*
X0167501Y0134572*
X0168342Y0133731*
X0168403Y0133267*
X0168373Y0133112*
X0168218Y0133048*
X0168043Y0132915*
X016791Y013274*
X0167825Y0132537*
X0167797Y0132319*
X0167825Y0132101*
X016791Y0131898*
X0168043Y0131723*
X0168097Y0131682*
X016813Y0131184*
X0167599Y0130653*
X0166164*
X0165988Y0130618*
X016584Y0130518*
X0165315Y0129993*
X0165215Y0129845*
X016518Y0129669*
Y0128119*
X0165215Y0127943*
X0165315Y0127795*
X016574Y012737*
X0165888Y012727*
X0166064Y0127235*
X0169255*
X016926Y0127223*
X0169393Y0127048*
X0169568Y0126915*
X0169771Y012683*
X0169989Y0126802*
X0170207Y012683*
X017041Y0126915*
X0170585Y0127048*
X0170718Y0127223*
X0170803Y0127426*
X0170831Y0127644*
X0170803Y0127862*
X0170718Y0128065*
X0170585Y012824*
X0170625Y012836*
X0172874*
X0173805Y0127429*
Y0126769*
X0173668Y0126665*
X0173535Y012649*
X017345Y0126287*
X0173422Y0126069*
X017345Y0125851*
X0173535Y0125648*
X0173668Y0125473*
X0173843Y012534*
X0173974Y0125285*
Y0120599*
X0181574*
Y0086549*
X0124299*
Y0111074*
X0126524*
Y0091949*
X0129649Y0088824*
X0166624*
X0167349Y0089549*
Y0104724*
X0163224Y0108849*
Y0117999*
X0164624Y0119399*
Y0123749*
X0159999Y0128374*
X0151588*
X0151244Y0128737*
X0151249Y0128824*
Y0130648*
X0151643*
Y0131198*
Y0131748*
X0151249*
Y0133774*
X0152349Y0134874*
X015514*
X0155471Y0134443*
G37*
%LNpcb1-2*%
%LPC*%
G36*
X0128015Y0115765D02*
X0127767Y0115733D01*
X0127536Y0115637*
X0127337Y0115485*
X0127185Y0115286*
X0127089Y0115055*
X0127057Y0114807*
X0127089Y0114559*
X0127185Y0114328*
X0127337Y0114129*
X0127536Y0113977*
X0127767Y0113881*
X0128015Y0113849*
X0128263Y0113881*
X0128494Y0113977*
X0128693Y0114129*
X0128845Y0114328*
X0128941Y0114559*
X0128973Y0114807*
X0128941Y0115055*
X0128845Y0115286*
X0128693Y0115485*
X0128494Y0115637*
X0128263Y0115733*
X0128015Y0115765*
G37*
G36*
X0177291Y0117797D02*
X0177043Y0117765D01*
X0176812Y0117669*
X0176613Y0117517*
X0176461Y0117318*
X0176365Y0117087*
X0176333Y0116839*
X0176365Y0116591*
X0176383Y0116549*
X0176066Y0116163*
X0175949Y0116186*
X0169749*
X0169515Y0116139*
X0169316Y0116007*
X0169226Y0115871*
X0168206Y0114852*
X016819Y0114827*
X0168043Y0114715*
X0167849Y0114763*
X0166749*
Y0113817*
Y0113463*
Y011294*
X0167849*
Y0112909*
X0168138Y0113286*
X0168265Y011337*
X0168421Y0113305*
X0168639Y0113277*
X0168857Y0113305*
X016906Y011339*
X0169235Y0113523*
X0169368Y0113698*
X0169453Y0113901*
X0169481Y0114119*
X0169453Y0114337*
X0169444Y0114358*
X0170047Y0114962*
X0170564*
X0170755Y01145*
X0170569Y0114406*
X0170366Y0114322*
X0170192Y0114188*
X0170058Y0114014*
X0169974Y011381*
X0169945Y0113592*
X0169974Y0113375*
X0170058Y0113171*
X0170192Y0112997*
X0170366Y0112863*
X0170569Y0112779*
X0170787Y011275*
X0171005Y0112779*
X0171209Y0112863*
X0171383Y0112997*
X0171517Y0113171*
X0171601Y0113375*
X017163Y0113592*
X0171624Y0113638*
X0171642Y0113657*
X0172256*
X0172416Y0113184*
X0172293Y011309*
X017216Y0112915*
X0172075Y0112712*
X0172047Y0112494*
X0172075Y0112276*
X017216Y0112073*
X0172293Y0111898*
X0172468Y0111765*
X0172671Y011168*
X0172889Y0111652*
X0173107Y011168*
X017331Y0111765*
X0173463Y0111882*
X0174083*
X0174124Y0111675*
X0174256Y0111476*
X0174354Y0111379*
X0174133Y011093*
X0174089Y0110936*
X0173871Y0110908*
X0173668Y0110823*
X0173493Y011069*
X017336Y0110515*
X0173275Y0110312*
X0173247Y0110094*
X0173275Y0109876*
X017336Y0109673*
X0173493Y0109498*
X0173506Y0109489*
X0173534Y010935*
X0173666Y0109151*
X0176114Y0106703*
X0176313Y0106571*
X0176348Y0106564*
X0176365Y0106431*
X0176461Y01062*
X0176613Y0106001*
X0176812Y0105849*
X0177043Y0105753*
X0177291Y0105721*
X0177539Y0105753*
X017777Y0105849*
X0177969Y0106001*
X0178121Y01062*
X0178217Y0106431*
X0178249Y0106679*
X0178217Y0106927*
X0178121Y0107158*
X0177969Y0107357*
X017777Y0107509*
X0177539Y0107605*
X0177291Y0107637*
X0177043Y0107605*
X0176973Y0107575*
X0176603Y0107945*
X0176881Y010836*
X0177043Y0108293*
X0177291Y0108261*
X0177539Y0108293*
X017777Y0108389*
X0177969Y0108541*
X0178121Y010874*
X0178217Y0108971*
X0178249Y0109219*
X0178217Y0109467*
X0178121Y0109698*
X0177969Y0109897*
X017777Y0110049*
X0177539Y0110145*
X0177291Y0110177*
X017725Y0110489*
X0177288Y0110778*
X0177296Y0110801*
X0177539Y0110833*
X017777Y0110929*
X0177969Y0111081*
X0178121Y011128*
X0178217Y0111511*
X0178249Y0111759*
X0178217Y0112007*
X0178121Y0112238*
X0177969Y0112437*
X017777Y0112589*
X0177539Y0112685*
X0177354Y0112709*
X0177225Y0112838*
X0177256Y0113075*
X0177349Y0113348*
X0177539Y0113373*
X017777Y0113469*
X0177969Y0113621*
X0178121Y011382*
X0178217Y0114051*
X0178249Y0114299*
X0178217Y0114547*
X0178121Y0114778*
X0177969Y0114977*
X017777Y0115129*
X0177539Y0115225*
X0177291Y0115257*
X0176938Y011545*
X017716Y0115898*
X0177291Y0115881*
X0177539Y0115913*
X017777Y0116009*
X0177969Y0116161*
X0178121Y011636*
X0178217Y0116591*
X0178249Y0116839*
X0178217Y0117087*
X0178121Y0117318*
X0177969Y0117517*
X017777Y0117669*
X0177539Y0117765*
X0177291Y0117797*
G37*
G36*
X0143905Y0091546D02*
X0143784Y0091531D01*
X0143553Y0091435*
X0143354Y0091283*
X0143202Y0091084*
X0143106Y0090853*
X0143091Y0090732*
X0143905*
Y0091546*
G37*
G36*
X0144159D02*
Y0090732D01*
X0144973*
X0144958Y0090853*
X0144862Y0091084*
X014471Y0091283*
X0144511Y0091435*
X014428Y0091531*
X0144159Y0091546*
G37*
G36*
X0167172Y0112686D02*
X0166749D01*
Y0112163*
X0167172*
Y0112686*
G37*
G36*
X0128956Y011214D02*
X0128142D01*
Y0111326*
X0128263Y0111341*
X0128494Y0111437*
X0128693Y0111589*
X0128845Y0111788*
X0128941Y0112019*
X0128956Y011214*
G37*
G36*
X0167849Y0112686D02*
X0167426D01*
Y0112163*
X0167849*
Y0112686*
G37*
G36*
X0128142Y0113208D02*
Y0112394D01*
X0128956*
X0128941Y0112515*
X0128845Y0112746*
X0128693Y0112945*
X0128494Y0113097*
X0128263Y0113193*
X0128142Y0113208*
G37*
G36*
X0127888D02*
X0127767Y0113193D01*
X0127536Y0113097*
X0127337Y0112945*
X0127185Y0112746*
X0127089Y0112515*
X0127074Y0112394*
X0127888*
Y0113208*
G37*
G36*
X0141619Y0091546D02*
Y0090732D01*
X0142433*
X0142418Y0090853*
X0142322Y0091084*
X014217Y0091283*
X0141971Y0091435*
X014174Y0091531*
X0141619Y0091546*
G37*
G36*
X0128783Y0128837D02*
X0128535Y0128805D01*
X0128304Y0128709*
X0128105Y0128557*
X0127953Y0128358*
X0127857Y0128127*
X0127825Y0127879*
X0127857Y0127631*
X0127953Y01274*
X0128105Y0127201*
X0128304Y0127049*
X0128535Y0126953*
X0128783Y0126921*
X0129031Y0126953*
X0129262Y0127049*
X0129461Y0127201*
X0129613Y01274*
X0129709Y0127631*
X0129741Y0127879*
X0129709Y0128127*
X0129613Y0128358*
X0129461Y0128557*
X0129262Y0128709*
X0129031Y0128805*
X0128783Y0128837*
G37*
G36*
X0177043Y0126297D02*
X0176795Y0126265D01*
X0176564Y0126169*
X0176365Y0126017*
X0176213Y0125818*
X0176117Y0125587*
X0176085Y0125339*
X0176117Y0125091*
X0176213Y012486*
X0176365Y0124661*
X0176564Y0124509*
X0176795Y0124413*
X0177043Y0124381*
X0177291Y0124413*
X0177522Y0124509*
X0177721Y0124661*
X0177873Y012486*
X0177969Y0125091*
X0178001Y0125339*
X0177969Y0125587*
X0177873Y0125818*
X0177721Y0126017*
X0177522Y0126169*
X0177291Y0126265*
X0177043Y0126297*
G37*
G36*
X0128783Y0131377D02*
X0128535Y0131345D01*
X0128304Y0131249*
X0128105Y0131097*
X0127953Y0130898*
X0127857Y0130667*
X0127825Y0130419*
X0127857Y0130171*
X0127953Y012994*
X0128105Y0129741*
X0128304Y0129589*
X0128535Y0129493*
X0128783Y0129461*
X0129031Y0129493*
X0129262Y0129589*
X0129461Y0129741*
X0129613Y012994*
X0129709Y0130171*
X0129741Y0130419*
X0129709Y0130667*
X0129613Y0130898*
X0129461Y0131097*
X0129262Y0131249*
X0129031Y0131345*
X0128783Y0131377*
G37*
G36*
X0177043Y0128837D02*
X0176795Y0128805D01*
X0176564Y0128709*
X0176365Y0128557*
X0176213Y0128358*
X0176117Y0128127*
X0176085Y0127879*
X0176117Y0127631*
X0176213Y01274*
X0176365Y0127201*
X0176564Y0127049*
X0176795Y0126953*
X0177043Y0126921*
X0177291Y0126953*
X0177522Y0127049*
X0177721Y0127201*
X0177873Y01274*
X0177969Y0127631*
X0178001Y0127879*
X0177969Y0128127*
X0177873Y0128358*
X0177721Y0128557*
X0177522Y0128709*
X0177291Y0128805*
X0177043Y0128837*
G37*
G36*
X0128783Y0126297D02*
X0128535Y0126265D01*
X0128304Y0126169*
X0128105Y0126017*
X0127953Y0125818*
X0127857Y0125587*
X0127825Y0125339*
X0127857Y0125091*
X0127953Y012486*
X0128105Y0124661*
X0128304Y0124509*
X0128535Y0124413*
X0128783Y0124381*
X0129031Y0124413*
X0129262Y0124509*
X0129461Y0124661*
X0129613Y012486*
X0129709Y0125091*
X0129741Y0125339*
X0129709Y0125587*
X0129613Y0125818*
X0129461Y0126017*
X0129262Y0126169*
X0129031Y0126265*
X0128783Y0126297*
G37*
G36*
Y0123757D02*
X0128535Y0123725D01*
X0128304Y0123629*
X0128105Y0123477*
X0127953Y0123278*
X0127857Y0123047*
X0127825Y0122799*
X0127857Y0122551*
X0127953Y012232*
X0128105Y0122121*
X0128304Y0121969*
X0128535Y0121873*
X0128783Y0121841*
X0129031Y0121873*
X0129262Y0121969*
X0129461Y0122121*
X0129613Y012232*
X0129709Y0122551*
X0129741Y0122799*
X0129709Y0123047*
X0129613Y0123278*
X0129461Y0123477*
X0129262Y0123629*
X0129031Y0123725*
X0128783Y0123757*
G37*
G36*
X0141365Y0091546D02*
X0141244Y0091531D01*
X0141013Y0091435*
X0140814Y0091283*
X0140662Y0091084*
X0140566Y0090853*
X0140551Y0090732*
X0141365*
Y0091546*
G37*
G36*
X0132629Y0124235D02*
X0132206D01*
Y0123712*
X0132629*
Y0124235*
G37*
G36*
X0177043Y0123757D02*
X0176795Y0123725D01*
X0176564Y0123629*
X0176365Y0123477*
X0176213Y0123278*
X0176117Y0123047*
X0176085Y0122799*
X0176117Y0122551*
X0176213Y012232*
X0176365Y0122121*
X0176564Y0121969*
X0176795Y0121873*
X0177043Y0121841*
X0177291Y0121873*
X0177522Y0121969*
X0177721Y0122121*
X0177873Y012232*
X0177969Y0122551*
X0178001Y0122799*
X0177969Y0123047*
X0177873Y0123278*
X0177721Y0123477*
X0177522Y0123629*
X0177291Y0123725*
X0177043Y0123757*
G37*
G36*
X0154319Y0091546D02*
Y0090732D01*
X0155133*
X0155118Y0090853*
X0155022Y0091084*
X015487Y0091283*
X0154671Y0091435*
X015444Y0091531*
X0154319Y0091546*
G37*
G36*
X0154065D02*
X0153944Y0091531D01*
X0153713Y0091435*
X0153514Y0091283*
X0153362Y0091084*
X0153266Y0090853*
X0153251Y0090732*
X0154065*
Y0091546*
G37*
G36*
X0156605D02*
X0156484Y0091531D01*
X0156253Y0091435*
X0156054Y0091283*
X0155902Y0091084*
X0155806Y0090853*
X0155791Y0090732*
X0156605*
Y0091546*
G37*
G36*
X0159145D02*
X0159024Y0091531D01*
X0158793Y0091435*
X0158594Y0091283*
X0158442Y0091084*
X0158346Y0090853*
X0158331Y0090732*
X0159145*
Y0091546*
G37*
G36*
X0156859D02*
Y0090732D01*
X0157673*
X0157658Y0090853*
X0157562Y0091084*
X015741Y0091283*
X0157211Y0091435*
X015698Y0091531*
X0156859Y0091546*
G37*
G36*
X0148985D02*
X0148864Y0091531D01*
X0148633Y0091435*
X0148434Y0091283*
X0148282Y0091084*
X0148186Y0090853*
X0148171Y0090732*
X0148985*
Y0091546*
G37*
G36*
X0146699D02*
Y0090732D01*
X0147513*
X0147498Y0090853*
X0147402Y0091084*
X014725Y0091283*
X0147051Y0091435*
X014682Y0091531*
X0146699Y0091546*
G37*
G36*
X0149239D02*
Y0090732D01*
X0150053*
X0150038Y0090853*
X0149942Y0091084*
X014979Y0091283*
X0149591Y0091435*
X014936Y0091531*
X0149239Y0091546*
G37*
G36*
X0151779D02*
Y0090732D01*
X0152593*
X0152578Y0090853*
X0152482Y0091084*
X015233Y0091283*
X0152131Y0091435*
X01519Y0091531*
X0151779Y0091546*
G37*
G36*
X0151525D02*
X0151404Y0091531D01*
X0151173Y0091435*
X0150974Y0091283*
X0150822Y0091084*
X0150726Y0090853*
X0150711Y0090732*
X0151525*
Y0091546*
G37*
G36*
X0146445D02*
X0146324Y0091531D01*
X0146093Y0091435*
X0145894Y0091283*
X0145742Y0091084*
X0145646Y0090853*
X0145631Y0090732*
X0146445*
Y0091546*
G37*
G36*
X0178241Y0104012D02*
X0177418D01*
Y0103189*
X0178241*
Y0104012*
G37*
G36*
X0177164Y0105089D02*
X0176341D01*
Y0104266*
X0177164*
Y0105089*
G37*
G36*
X0168639Y0111711D02*
X0168421Y0111683D01*
X0168218Y0111598*
X0168043Y0111465*
X016791Y011129*
X0167825Y0111087*
X0167797Y0110869*
X0167825Y0110651*
X016791Y0110448*
X0168043Y0110273*
X0168218Y011014*
X0168231Y0110134*
Y0108444*
X0168242Y0108388*
X01682Y0108287*
X0168172Y0108069*
X01682Y0107851*
X0168285Y0107648*
X0168418Y0107473*
X0168593Y010734*
X0168796Y0107255*
X0169014Y0107227*
X0169232Y0107255*
X0169435Y010734*
X016961Y0107473*
X0169743Y0107648*
X0169828Y0107851*
X0169856Y0108069*
X0169828Y0108287*
X0169743Y010849*
X016961Y0108665*
X0169435Y0108798*
X0169232Y0108883*
X0169047Y0108907*
Y0110134*
X016906Y011014*
X0169235Y0110273*
X0169368Y0110448*
X0169453Y0110651*
X0169481Y0110869*
X0169453Y0111087*
X0169368Y011129*
X0169235Y0111465*
X016906Y0111598*
X0168857Y0111683*
X0168639Y0111711*
G37*
G36*
X0178241Y0105089D02*
X0177418D01*
Y0104266*
X0178241*
Y0105089*
G37*
G36*
X0161685Y0091546D02*
X0161564Y0091531D01*
X0161333Y0091435*
X0161134Y0091283*
X0160982Y0091084*
X0160886Y0090853*
X0160871Y0090732*
X0161685*
Y0091546*
G37*
G36*
X0159399D02*
Y0090732D01*
X0160213*
X0160198Y0090853*
X0160102Y0091084*
X015995Y0091283*
X0159751Y0091435*
X015952Y0091531*
X0159399Y0091546*
G37*
G36*
X0161939D02*
Y0090732D01*
X0162753*
X0162738Y0090853*
X0162642Y0091084*
X016249Y0091283*
X0162291Y0091435*
X016206Y0091531*
X0161939Y0091546*
G37*
G36*
X0177164Y0104012D02*
X0176341D01*
Y0103189*
X0177164*
Y0104012*
G37*
G36*
X0168999Y0103458D02*
X0168823Y0103423D01*
X016874Y0103367*
X0168706Y0103363*
X0168503Y0103278*
X0168328Y0103145*
X0168195Y010297*
X016811Y0102767*
X0168082Y0102549*
X016811Y0102331*
X0168195Y0102128*
X0168328Y0101953*
X0168503Y010182*
X016854Y0101804*
Y0096311*
X0168453Y0096245*
X016832Y009607*
X0168235Y0095867*
X0168207Y0095649*
X0168235Y0095431*
X016832Y0095228*
X0168453Y0095053*
X0168628Y009492*
X0168831Y0094835*
X0169049Y0094807*
X0169267Y0094835*
X016947Y009492*
X0169645Y0095053*
X0169778Y0095228*
X0169863Y0095431*
X0169891Y0095649*
X0169863Y0095867*
X0169778Y009607*
X0169645Y0096245*
X016947Y0096378*
X0169458Y0096383*
Y0101906*
X016952Y0101953*
X0169653Y0102128*
X0169738Y0102331*
X0169766Y0102549*
X0169738Y0102767*
X0169653Y010297*
X016952Y0103145*
X0169362Y0103265*
X0169323Y0103323*
X0169175Y0103423*
X0168999Y0103458*
G37*
G36*
X0177043Y0153221D02*
X0176795Y0153189D01*
X0176564Y0153093*
X0176365Y0152941*
X0176213Y0152742*
X0176117Y0152511*
X0176085Y0152263*
X0176117Y0152015*
X0176213Y0151784*
X0176365Y0151585*
X0176564Y0151433*
X0176795Y0151337*
X0177043Y0151305*
X0177291Y0151337*
X0177522Y0151433*
X0177721Y0151585*
X0177873Y0151784*
X0177969Y0152015*
X0178001Y0152263*
X0177969Y0152511*
X0177873Y0152742*
X0177721Y0152941*
X0177522Y0153093*
X0177291Y0153189*
X0177043Y0153221*
G37*
G36*
X0174089Y0157436D02*
X0173871Y0157408D01*
X0173668Y0157323*
X0173493Y015719*
X017336Y0157015*
X0173275Y0156812*
X0173247Y0156594*
X0173275Y0156376*
X017336Y0156173*
X0173493Y0155998*
X017363Y0155894*
Y0153963*
X0173314Y0151561*
X0173096Y0151533*
X0172893Y0151448*
X0172718Y0151315*
X0172585Y015114*
X01725Y0150937*
X0172472Y0150719*
X01725Y0150501*
X0172585Y0150298*
X0172718Y0150123*
X0172893Y014999*
X0173096Y0149905*
X0173314Y0149877*
X0173532Y0149905*
X0173735Y014999*
X017391Y0150123*
X0174043Y0150298*
X0174128Y0150501*
X0174156Y0150719*
X0174134Y015089*
X0174413Y015117*
X0174513Y0151318*
X0174548Y0151494*
Y0155894*
X0174685Y0155998*
X0174818Y0156173*
X0174903Y0156376*
X0174931Y0156594*
X0174903Y0156812*
X0174818Y0157015*
X0174685Y015719*
X017451Y0157323*
X0174307Y0157408*
X0174089Y0157436*
G37*
G36*
X0177043Y0158301D02*
X0176795Y0158269D01*
X0176564Y0158173*
X0176365Y0158021*
X0176213Y0157822*
X0176117Y0157591*
X0176085Y0157343*
X0176117Y0157095*
X0176213Y0156864*
X0176365Y0156665*
X0176564Y0156513*
X0176795Y0156417*
X0177043Y0156385*
X0177291Y0156417*
X0177522Y0156513*
X0177721Y0156665*
X0177873Y0156864*
X0177969Y0157095*
X0178001Y0157343*
X0177969Y0157591*
X0177873Y0157822*
X0177721Y0158021*
X0177522Y0158173*
X0177291Y0158269*
X0177043Y0158301*
G37*
G36*
Y0155761D02*
X0176795Y0155729D01*
X0176564Y0155633*
X0176365Y0155481*
X0176213Y0155282*
X0176117Y0155051*
X0176085Y0154803*
X0176117Y0154555*
X0176213Y0154324*
X0176365Y0154125*
X0176564Y0153973*
X0176795Y0153877*
X0177043Y0153845*
X0177291Y0153877*
X0177522Y0153973*
X0177721Y0154125*
X0177873Y0154324*
X0177969Y0154555*
X0178001Y0154803*
X0177969Y0155051*
X0177873Y0155282*
X0177721Y0155481*
X0177522Y0155633*
X0177291Y0155729*
X0177043Y0155761*
G37*
G36*
Y0150681D02*
X0176795Y0150649D01*
X0176564Y0150553*
X0176365Y0150401*
X0176213Y0150202*
X0176117Y0149971*
X0176085Y0149723*
X0176117Y0149475*
X0176213Y0149244*
X0176365Y0149045*
X0176564Y0148893*
X0176795Y0148797*
X0177043Y0148765*
X0177291Y0148797*
X0177522Y0148893*
X0177721Y0149045*
X0177873Y0149244*
X0177969Y0149475*
X0178001Y0149723*
X0177969Y0149971*
X0177873Y0150202*
X0177721Y0150401*
X0177522Y0150553*
X0177291Y0150649*
X0177043Y0150681*
G37*
G36*
X012891Y0146092D02*
Y0145278D01*
X0129724*
X0129709Y0145399*
X0129613Y014563*
X0129461Y0145829*
X0129262Y0145981*
X0129031Y0146077*
X012891Y0146092*
G37*
G36*
X0128656D02*
X0128535Y0146077D01*
X0128304Y0145981*
X0128105Y0145829*
X0127953Y014563*
X0127857Y0145399*
X0127842Y0145278*
X0128656*
Y0146092*
G37*
G36*
X0128783Y0156269D02*
X0128535Y0156237D01*
X0128304Y0156141*
X0128105Y0155989*
X0127953Y015579*
X0127857Y0155559*
X0127825Y0155311*
X0127857Y0155063*
X0127953Y0154832*
X0128105Y0154633*
X0128304Y0154481*
X0128535Y0154385*
X0128602Y0154105*
X0128535Y0153697*
X0128304Y0153601*
X0128105Y0153449*
X0127953Y015325*
X0127857Y0153019*
X0127825Y0152771*
X0127857Y0152523*
X0127953Y0152292*
X0128105Y0152093*
X0128304Y0151941*
X0128535Y0151845*
X0128602Y0151565*
X0128535Y0151157*
X0128304Y0151061*
X0128105Y0150909*
X0127953Y015071*
X0127857Y0150479*
X0127825Y0150231*
X0127857Y0149983*
X0127953Y0149752*
X0128105Y0149553*
X0128304Y0149401*
X0128465Y0149*
X0128459Y0148988*
X0128457Y0148961*
X0128452Y0148935*
Y0148582*
X0128304Y0148521*
X0128105Y0148369*
X0127953Y014817*
X0127857Y0147939*
X0127825Y0147691*
X0127857Y0147443*
X0127953Y0147212*
X0128105Y0147013*
X0128304Y0146861*
X0128535Y0146765*
X0128783Y0146733*
X0129031Y0146765*
X0129262Y0146861*
X0129461Y0147013*
X0129511Y0147079*
X0137179*
X0137414Y0147126*
X0137612Y0147258*
X0137745Y0147457*
X0137791Y0147691*
X0137745Y0147925*
X0137612Y0148124*
X0137414Y0148256*
X0137179Y0148303*
X0136168*
Y0149577*
Y0150837*
Y0152117*
Y0153377*
Y0153822*
X013718*
X0137258Y0153837*
X0137324Y0153882*
X013733Y015389*
X0137398Y0153904*
X0137597Y0154036*
X0137729Y0154235*
X0137776Y0154469*
Y0155194*
X0137729Y0155428*
X0137597Y0155627*
X0137398Y0155759*
X0137164Y0155806*
X013693Y0155759*
X0136731Y0155627*
X0136718Y0155606*
X0134595*
X0134561Y0155629*
X0134483Y0155644*
X0134229*
X0134151Y0155629*
X0134117Y0155606*
X0132314*
X013208Y0155559*
X0131948Y0155471*
X0131074*
X0130996Y0155455*
X013093Y0155411*
X0130924Y0155403*
X0130029*
X0130003Y0155398*
X0129976Y0155396*
X0129864Y0155453*
X0129709Y0155559*
X0129613Y015579*
X0129461Y0155989*
X0129262Y0156141*
X0129031Y0156237*
X0128783Y0156269*
G37*
G36*
X0177043Y0148141D02*
X0176795Y0148109D01*
X0176564Y0148013*
X0176365Y0147861*
X0176213Y0147662*
X0176117Y0147431*
X0176085Y0147183*
X0176117Y0146935*
X0176213Y0146704*
X0176365Y0146505*
X0176564Y0146353*
X0176795Y0146257*
X0177043Y0146225*
X0177291Y0146257*
X0177522Y0146353*
X0177721Y0146505*
X0177873Y0146704*
X0177969Y0146935*
X0178001Y0147183*
X0177969Y0147431*
X0177873Y0147662*
X0177721Y0147861*
X0177522Y0148013*
X0177291Y0148109*
X0177043Y0148141*
G37*
G36*
X0129733Y0158801D02*
X0127833D01*
Y0156901*
X0129733*
Y0158801*
G37*
G36*
X0140715Y0164025D02*
X0140467Y0163993D01*
X0140236Y0163897*
X0140037Y0163745*
X0139885Y0163546*
X0139789Y0163315*
X0139757Y0163067*
X0139789Y0162819*
X0139885Y0162588*
X0140037Y0162389*
X0140236Y0162237*
X0140467Y0162141*
X0140715Y0162109*
X0140963Y0162141*
X0141194Y0162237*
X0141393Y0162389*
X0141545Y0162588*
X0141641Y0162819*
X0141673Y0163067*
X0141641Y0163315*
X0141545Y0163546*
X0141393Y0163745*
X0141194Y0163897*
X0140963Y0163993*
X0140715Y0164025*
G37*
G36*
X0177993Y0163373D02*
X0176093D01*
Y0161473*
X0177993*
Y0163373*
G37*
G36*
X0146745Y0164017D02*
X0144845D01*
Y0162117*
X0146745*
Y0164017*
G37*
G36*
X0143255Y0164025D02*
X0143007Y0163993D01*
X0142776Y0163897*
X0142577Y0163745*
X0142425Y0163546*
X0142329Y0163315*
X0142297Y0163067*
X0142329Y0162819*
X0142425Y0162588*
X0142577Y0162389*
X0142776Y0162237*
X0143007Y0162141*
X0143255Y0162109*
X0143503Y0162141*
X0143734Y0162237*
X0143933Y0162389*
X0144085Y0162588*
X0144181Y0162819*
X0144213Y0163067*
X0144181Y0163315*
X0144085Y0163546*
X0143933Y0163745*
X0143734Y0163897*
X0143503Y0163993*
X0143255Y0164025*
G37*
G36*
X017717Y0160824D02*
Y016001D01*
X0177984*
X0177969Y0160131*
X0177873Y0160362*
X0177721Y0160561*
X0177522Y0160713*
X0177291Y0160809*
X017717Y0160824*
G37*
G36*
X0176916Y0159756D02*
X0176102D01*
X0176117Y0159635*
X0176213Y0159404*
X0176365Y0159205*
X0176564Y0159053*
X0176795Y0158957*
X0176916Y0158942*
Y0159756*
G37*
G36*
X0172889Y0159761D02*
X0172671Y0159733D01*
X0172468Y0159648*
X0172293Y0159515*
X017216Y015934*
X0172075Y0159137*
X0172047Y0158919*
X0172058Y0158837*
X0171165Y0157943*
X0171065Y0157795*
X017103Y0157619*
Y0149069*
X0171065Y0148893*
X0171165Y0148745*
X017229Y014762*
X0172438Y014752*
X0172614Y0147485*
X017273*
X0172735Y0147473*
X0172868Y0147298*
X0173043Y0147165*
X0173246Y014708*
X0173464Y0147052*
X0173682Y014708*
X0173885Y0147165*
X017406Y0147298*
X0174193Y0147473*
X0174278Y0147676*
X0174306Y0147894*
X0174278Y0148112*
X0174193Y0148315*
X017406Y014849*
X0173885Y0148623*
X0173682Y0148708*
X0173464Y0148736*
X0173246Y0148708*
X0173043Y0148623*
X0172868Y014849*
X0172727Y014848*
X0171948Y0149259*
Y0157429*
X0172638Y0158119*
X0172671Y0158105*
X0172889Y0158077*
X0173107Y0158105*
X017331Y015819*
X0173485Y0158323*
X0173618Y0158498*
X0173703Y0158701*
X0173731Y0158919*
X0173703Y0159137*
X0173618Y015934*
X0173485Y0159515*
X017331Y0159648*
X0173107Y0159733*
X0172889Y0159761*
G37*
G36*
X0176916Y0160824D02*
X0176795Y0160809D01*
X0176564Y0160713*
X0176365Y0160561*
X0176213Y0160362*
X0176117Y0160131*
X0176102Y016001*
X0176916*
Y0160824*
G37*
G36*
X0177984Y0159756D02*
X017717D01*
Y0158942*
X0177291Y0158957*
X0177522Y0159053*
X0177721Y0159205*
X0177873Y0159404*
X0177969Y0159635*
X0177984Y0159756*
G37*
G36*
X0177993Y0141529D02*
X0176093D01*
Y0139629*
X0177993*
Y0141529*
G37*
G36*
X0128783Y0141029D02*
X0128535Y0140997D01*
X0128304Y0140901*
X0128105Y0140749*
X0127953Y014055*
X0127857Y0140319*
X0127825Y0140071*
X0127857Y0139823*
X0127953Y0139592*
X0128105Y0139393*
X0128304Y0139241*
X0128535Y0139145*
X0128783Y0139113*
X0129031Y0139145*
X0129262Y0139241*
X0129461Y0139393*
X0129613Y0139592*
X0129709Y0139823*
X0129741Y0140071*
X0129709Y0140319*
X0129613Y014055*
X0129461Y0140749*
X0129262Y0140901*
X0129031Y0140997*
X0128783Y0141029*
G37*
G36*
X0128656Y0142484D02*
X0127842D01*
X0127857Y0142363*
X0127953Y0142132*
X0128105Y0141933*
X0128304Y0141781*
X0128535Y0141685*
X0128656Y014167*
Y0142484*
G37*
G36*
X0128783Y0133917D02*
X0128535Y0133885D01*
X0128304Y0133789*
X0128105Y0133637*
X0127953Y0133438*
X0127857Y0133207*
X0127825Y0132959*
X0127857Y0132711*
X0127953Y013248*
X0128105Y0132281*
X0128304Y0132129*
X0128535Y0132033*
X0128783Y0132001*
X0129031Y0132033*
X0129262Y0132129*
X0129461Y0132281*
X0129613Y013248*
X0129709Y0132711*
X0129741Y0132959*
X0129709Y0133207*
X0129613Y0133438*
X0129461Y0133637*
X0129262Y0133789*
X0129031Y0133885*
X0128783Y0133917*
G37*
G36*
X0173589Y0143886D02*
X0173371Y0143858D01*
X0173168Y0143773*
X0172993Y014364*
X017286Y0143465*
X0172775Y0143262*
X0172747Y0143044*
X0172775Y0142826*
X017286Y0142623*
X0172993Y0142448*
X0173155Y0142324*
Y0140644*
X0173018Y014054*
X0172885Y0140365*
X01728Y0140162*
X0172772Y0139944*
X01728Y0139726*
X0172885Y0139523*
X0173018Y0139348*
X0173193Y0139215*
X0173396Y013913*
X0173614Y0139102*
X0173832Y013913*
X0174035Y0139215*
X017421Y0139348*
X0174343Y0139523*
X0174428Y0139726*
X0174456Y0139944*
X0174428Y0140162*
X0174343Y0140365*
X017421Y014054*
X0174073Y0140644*
Y0142363*
X0174185Y0142448*
X0174318Y0142623*
X0174403Y0142826*
X0174431Y0143044*
X0174403Y0143262*
X0174318Y0143465*
X0174185Y014364*
X017401Y0143773*
X0173807Y0143858*
X0173589Y0143886*
G37*
G36*
X0177043Y0136457D02*
X0176795Y0136425D01*
X0176564Y0136329*
X0176365Y0136177*
X0176213Y0135978*
X0176117Y0135747*
X0176085Y0135499*
X0176117Y0135251*
X0176213Y013502*
X0176365Y0134821*
X0176564Y0134669*
X0176795Y0134573*
X0177043Y0134541*
X0177291Y0134573*
X0177522Y0134669*
X0177721Y0134821*
X0177873Y013502*
X0177969Y0135251*
X0178001Y0135499*
X0177969Y0135747*
X0177873Y0135978*
X0177721Y0136177*
X0177522Y0136329*
X0177291Y0136425*
X0177043Y0136457*
G37*
G36*
Y0133917D02*
X0176795Y0133885D01*
X0176564Y0133789*
X0176365Y0133637*
X0176213Y0133438*
X0176117Y0133207*
X0176085Y0132959*
X0176117Y0132711*
X0176213Y013248*
X0176365Y0132281*
X0176564Y0132129*
X0176795Y0132033*
X0177043Y0132001*
X0177291Y0132033*
X0177522Y0132129*
X0177721Y0132281*
X0177873Y013248*
X0177969Y0132711*
X0178001Y0132959*
X0177969Y0133207*
X0177873Y0133438*
X0177721Y0133637*
X0177522Y0133789*
X0177291Y0133885*
X0177043Y0133917*
G37*
G36*
Y0138997D02*
X0176795Y0138965D01*
X0176564Y0138869*
X0176365Y0138717*
X0176213Y0138518*
X0176117Y0138287*
X0176085Y0138039*
X0176117Y0137791*
X0176213Y013756*
X0176365Y0137361*
X0176564Y0137209*
X0176795Y0137113*
X0177043Y0137081*
X0177291Y0137113*
X0177522Y0137209*
X0177721Y0137361*
X0177873Y013756*
X0177969Y0137791*
X0178001Y0138039*
X0177969Y0138287*
X0177873Y0138518*
X0177721Y0138717*
X0177522Y0138869*
X0177291Y0138965*
X0177043Y0138997*
G37*
G36*
X0129733Y0136449D02*
X0127833D01*
Y0134549*
X0129733*
Y0136449*
G37*
G36*
X0129724Y0142484D02*
X012891D01*
Y014167*
X0129031Y0141685*
X0129262Y0141781*
X0129461Y0141933*
X0129613Y0142132*
X0129709Y0142363*
X0129724Y0142484*
G37*
G36*
X012891Y0143552D02*
Y0142738D01*
X0129724*
X0129709Y0142859*
X0129613Y014309*
X0129461Y0143289*
X0129262Y0143441*
X0129031Y0143537*
X012891Y0143552*
G37*
G36*
X0177043Y0131377D02*
X0176795Y0131345D01*
X0176564Y0131249*
X0176365Y0131097*
X0176213Y0130898*
X0176117Y0130667*
X0176085Y0130419*
X0176117Y0130171*
X0176213Y012994*
X0176365Y0129741*
X0176564Y0129589*
X0176795Y0129493*
X0177043Y0129461*
X0177291Y0129493*
X0177522Y0129589*
X0177721Y0129741*
X0177873Y012994*
X0177969Y0130171*
X0178001Y0130419*
X0177969Y0130667*
X0177873Y0130898*
X0177721Y0131097*
X0177522Y0131249*
X0177291Y0131345*
X0177043Y0131377*
G37*
G36*
Y0145601D02*
X0176795Y0145569D01*
X0176564Y0145473*
X0176365Y0145321*
X0176213Y0145122*
X0176117Y0144891*
X0176085Y0144643*
X0176117Y0144395*
X0176213Y0144164*
X0176365Y0143965*
X0176564Y0143813*
X0176795Y0143717*
X0177043Y0143685*
X0177291Y0143717*
X0177522Y0143813*
X0177721Y0143965*
X0177873Y0144164*
X0177969Y0144395*
X0178001Y0144643*
X0177969Y0144891*
X0177873Y0145122*
X0177721Y0145321*
X0177522Y0145473*
X0177291Y0145569*
X0177043Y0145601*
G37*
G36*
X0129724Y0145024D02*
X012891D01*
Y014421*
X0129031Y0144225*
X0129262Y0144321*
X0129461Y0144473*
X0129613Y0144672*
X0129709Y0144903*
X0129724Y0145024*
G37*
G36*
X0128656D02*
X0127842D01*
X0127857Y0144903*
X0127953Y0144672*
X0128105Y0144473*
X0128304Y0144321*
X0128535Y0144225*
X0128656Y014421*
Y0145024*
G37*
G36*
X0141164Y0142512D02*
X0140741D01*
Y0141989*
X0141164*
Y0142512*
G37*
G36*
X0128656Y0143552D02*
X0128535Y0143537D01*
X0128304Y0143441*
X0128105Y0143289*
X0127953Y014309*
X0127857Y0142859*
X0127842Y0142738*
X0128656*
Y0143552*
G37*
G36*
X015242Y0131071D02*
X0151897D01*
Y0130648*
X015242*
Y0131071*
G37*
G36*
Y0131748D02*
X0151897D01*
Y0131325*
X015242*
Y0131748*
G37*
%LNpcb1-3*%
%LPD*%
G36*
X0134483Y015449D02*
X0135206D01*
Y0155199*
X0135964*
Y0154657*
Y015428*
X013718*
Y0154026*
X0135964*
Y0153377*
Y0152117*
Y0150837*
Y0149577*
Y0148297*
Y014794*
X013718*
Y0147686*
X0135964*
Y0147599*
X0135221*
Y0147706*
X0134371*
Y0147833*
X0134244*
Y0148783*
X0133521*
Y0148775*
X0132466*
Y0147625*
X0132339*
Y0147498*
X0131089*
Y0147599*
X0130124*
X0130044Y0147691*
X0130027Y0147564*
X0128783*
Y0147691*
X0128656*
Y0148935*
X0128783Y0148952*
X0128799Y014895*
Y0148972*
X0129109Y0149013*
X0129413Y0149139*
X0129675Y0149339*
X0129875Y0149601*
X0130001Y0149905*
X0130044Y0150231*
X0130001Y0150557*
X0129875Y0150861*
X0129675Y0151123*
X0129413Y0151323*
X0129109Y0151449*
X0128799Y015149*
Y0151512*
X0129109Y0151553*
X0129413Y0151679*
X0129675Y0151879*
X0129875Y0152141*
X0130001Y0152445*
X0130044Y0152771*
X0130001Y0153097*
X0129875Y0153401*
X0129675Y0153663*
X0129413Y0153863*
X0129109Y0153989*
X0128799Y015403*
Y0154052*
X0129109Y0154093*
X0129413Y0154219*
X0129675Y0154419*
X0129875Y0154681*
X0130001Y0154985*
X0130029Y0155199*
X0131074*
Y0155267*
X0132324*
Y015514*
X0132451*
Y015399*
X0133574*
Y015449*
X0134229*
Y015544*
X0134483*
Y015449*
G37*
%LNpcb1-4*%
%LPC*%
G36*
X012891Y0148935D02*
Y0147818D01*
X0130027*
X0130001Y0148017*
X0129875Y0148321*
X0129675Y0148583*
X0129413Y0148783*
X0129109Y0148909*
X012891Y0148935*
G37*
G36*
X0132212Y0148775D02*
X0131089D01*
Y0147752*
X0132212*
Y0148775*
G37*
G36*
X0132197Y0155013D02*
X0131074D01*
Y015399*
X0132197*
Y0155013*
G37*
G36*
X0135221Y0148783D02*
X0134498D01*
Y014796*
X0135221*
Y0148783*
G37*
%LNpcb1-5*%
%LPD*%
G54D13*
X0140614Y0141862D03*
Y0140562D03*
X0132079Y0123585D03*
Y0122285D03*
X0138582Y0140562D03*
Y0141862D03*
X0167299Y0112813D03*
Y0114113D03*
G54D15*
X0134684Y0140704D03*
X0136384D03*
G54D18*
X015047Y0131198D03*
X015177D03*
X014173Y0134883D03*
X014043D03*
X014173Y0133359D03*
X014043D03*
G54D28*
X0168999Y0095649D02*
Y0102999D01*
X0174264Y0126019D02*
Y0127619D01*
X0168664Y0131069D02*
Y0132319D01*
X0166064Y0127694D02*
X0169989D01*
X0138327Y0137357D02*
X0140064D01*
X0138064Y0137094D02*
X0138327Y0137357D01*
X0138064Y0135144D02*
Y0137094D01*
X0140064Y0140619D02*
X0140164Y0140519D01*
X0136339Y0140594D02*
X0140014D01*
X0140064Y0138307D02*
Y0140619D01*
X0140164Y0140519D02*
X0142664D01*
X0131978Y013749D02*
Y013808D01*
X0132017Y0138119*
X0134914*
X0134689Y0138094D02*
Y0140644D01*
X0140064Y0135169D02*
Y0136407D01*
Y0135169D02*
X0140414Y0134819D01*
X0142764Y0136407D02*
X0148076D01*
X0148114Y0136369*
X0174089Y0151494D02*
Y0156594D01*
X0167039Y0128819D02*
X0173064D01*
X0174264Y0127619*
X0167789Y0130194D02*
X0168664Y0131069D01*
X0166164Y0130194D02*
X0167789D01*
X0165639Y0129669D02*
X0166164Y0130194D01*
X0165639Y0128119D02*
Y0129669D01*
Y0128119D02*
X0166064Y0127694D01*
X0173264Y0150669D02*
X0174089Y0151494D01*
X0167305Y0114119D02*
X0168639D01*
X0173614Y0139944D02*
Y0143019D01*
X0171489Y0149069D02*
X0172614Y0147944D01*
X0171489Y0149069D02*
Y0157619D01*
X0132699Y0140699D02*
X0134724D01*
X0171489Y0157619D02*
X0172839Y0158969D01*
X0172614Y0147944D02*
X0173464D01*
G54D29*
X0149089Y0129339D02*
Y0130619D01*
G54D30*
X0169464Y0146094D02*
X0173064D01*
X0179564Y0143969D02*
Y0146594D01*
X0176189Y0142969D02*
X0178564D01*
X0173064Y0146094D02*
X0176189Y0142969D01*
X0178564D02*
X0179564Y0143969D01*
X0170624Y0106399D02*
X0173474D01*
X0149674Y0106799D02*
X0150499Y0105974D01*
X0145374Y0115724D02*
X0145999Y0116349D01*
X0144874Y0106724D02*
X0146924D01*
X0147504Y0106174D02*
Y0106429D01*
X0145384Y0118834D02*
X0146074Y0119524D01*
X0145407Y0118767D02*
X0145999Y0118174D01*
X0132123Y0121949D02*
X0132124D01*
X0132078D02*
X0132123D01*
X0132024D02*
X0132078D01*
X0145374Y0115724D02*
X0145429D01*
X0145999Y0106724D02*
Y0115174D01*
X0175949Y0115574D02*
X0177274Y0114249D01*
X0169749Y0115574D02*
X0175949D01*
X0171389Y0114269D02*
X0175014D01*
X0174999Y0114199D02*
X0177291Y0111907D01*
Y0111759D02*
Y0111907D01*
X0174689Y0111909D02*
Y0112494D01*
X0172889D02*
X0174689D01*
X0177291Y0109219D02*
Y0109307D01*
X0174689Y0111909D02*
X0177291Y0109307D01*
X0174099Y0109584D02*
X0176547Y0107136D01*
X0174099Y0109584D02*
Y0110049D01*
X0145224Y0121924D02*
X0149924Y0121899D01*
X0145224Y0121924D02*
X0145424Y0121699D01*
X015177Y0131198D02*
X015805D01*
X0165314Y0123934*
X0150024Y0121874D02*
X0152349D01*
X0153024Y0121199*
X0151299Y0106874D02*
X0153649D01*
X0144049Y0093124D02*
Y0094724D01*
X0142749Y0120324D02*
X0144699D01*
X0134999Y0112574D02*
X0142749Y0120324D01*
X0134999Y0102049D02*
Y0112574D01*
Y0102049D02*
X0141724Y0095324D01*
X0143449*
X0144049Y0094724*
X0146499Y0093124D02*
Y0095324D01*
X0141128Y0117278D02*
X0144515D01*
X0136024Y0112174D02*
X0141128Y0117278D01*
X0136024Y0102574D02*
Y0112174D01*
Y0102574D02*
X0142149Y0096449D01*
X0145374*
X0146499Y0095324*
X0149099Y0093124D02*
Y0096474D01*
X0139714Y0114364D02*
X0144454D01*
X0137024Y0111674D02*
X0139714Y0114364D01*
X0137024Y0103249D02*
Y0111674D01*
Y0103249D02*
X0142399Y0097874D01*
X0147699*
X0149099Y0096474*
X0139899Y0102749D02*
Y0105324D01*
Y0102749D02*
X0143224Y0099424D01*
X0149724*
X0151674Y0097474*
Y0093174D02*
Y0097474D01*
X0142924Y0102874D02*
Y0105199D01*
Y0102874D02*
X0145124Y0100674D01*
X0151799*
X0154099Y0098374*
Y0093174D02*
Y0098374D01*
X0146024Y0103474D02*
Y0105249D01*
Y0103474D02*
X0147574Y0101924D01*
X0154349*
X0156599Y0099674*
Y0093174D02*
Y0099674D01*
X0149049Y0104199D02*
Y0105374D01*
Y0104199D02*
X0149649Y0103599D01*
X0155774*
X0159224Y0100149*
Y0093174D02*
Y0100149D01*
X0161724Y0093124D02*
Y0101049D01*
X0157534Y0105239D02*
X0161724Y0101049D01*
X0151954Y0105239D02*
X0157534D01*
X0145399Y0121799D02*
Y0121824D01*
X0150499Y0106074D02*
X0151299Y0106874D01*
X0150499Y0105974D02*
Y0106074D01*
X0147874Y0106799D02*
X0149674D01*
X0147504Y0106429D02*
X0147874Y0106799D01*
X0145449Y0115724D02*
X0145999Y0115174D01*
Y0116349D02*
Y0118174D01*
X0146649Y0106774D02*
X0146674Y0106799D01*
X0146074Y0119524D02*
Y0121049D01*
X0145424Y0121699D02*
X0146074Y0121049D01*
X0138324Y0106149D02*
X0139074Y0106899D01*
X0141024*
X0141424Y0106499*
Y0106274D02*
Y0106499D01*
Y0106274D02*
X0141924Y0106774D01*
X0143999*
X0144424Y0106349*
Y0106274D02*
Y0106349D01*
Y0106274D02*
X0144874Y0106724D01*
X0146924D02*
X0147474Y0106174D01*
X0165302Y0119032D02*
X0165314Y0119044D01*
X0163789Y0117519D02*
X0165302Y0119032D01*
X0163789Y0108644D02*
Y0117519D01*
X016387Y0112813D02*
X0167299D01*
X0168639Y0114419D02*
X0169714Y0115494D01*
X0168639Y0114119D02*
Y0114419D01*
X0170764Y0113644D02*
X0171389Y0114269D01*
X0170654Y0107559D02*
Y0111154D01*
X0163789Y0108644D02*
X0166039Y0106394D01*
X0170624Y0106399*
X0170654Y0107559*
X0128764Y0142569D02*
X0128789Y0142594D01*
Y0145044*
X0132314Y0154994D02*
X0137164D01*
Y0154469D02*
Y0155194D01*
X0132314Y0147716D02*
Y0154994D01*
X0165314Y0119044D02*
Y0123934D01*
X0128918Y0147691D02*
X0137179D01*
X0128074Y0112274D02*
X0128749D01*
X0128049Y0112249D02*
X0128074D01*
X0128749Y0112274D02*
X0132124Y0115649D01*
Y0122235*
X0140324Y0122049D02*
Y0132999D01*
X0130949Y0095099D02*
Y0112674D01*
Y0095099D02*
X0132974Y0093074D01*
X0140199Y0132999D02*
Y0133274D01*
X0132974Y0093074D02*
X0138949D01*
X0130949Y0112674D02*
X0140324Y0122049D01*
X0138949Y0090649D02*
Y0093074D01*
X0138924Y0090624D02*
X0138949Y0090649D01*
X0133699Y0101099D02*
X0141449Y0093349D01*
X0133699Y0101099D02*
Y0113399D01*
X0143724Y0123424*
X0141449Y0093124D02*
Y0093349D01*
X0143724Y0123424D02*
X0148799D01*
G54D32*
X0175449Y0104199D02*
X0177524D01*
X0173299Y0106374D02*
X0173373Y0106299D01*
X0175449Y0104199*
X0173279Y0106394D02*
X0173299Y0106374D01*
X0153624Y0106874D02*
X0161374D01*
X0141274Y0090624D02*
X016298Y0090605D01*
X0141814Y0130644D02*
Y0131869D01*
X0131924Y0123699D02*
Y0127449D01*
X0155014Y0132944D02*
X0155989Y0133919D01*
X0161374Y0106874D02*
X0163999Y0104249D01*
Y0091624D02*
Y0104249D01*
X016298Y0090605D02*
X0163999Y0091624D01*
X0131924Y0127449D02*
X0131939Y0135094D01*
Y0130944D02*
X0132264Y0130619D01*
X0138539Y0142694D02*
X0163989D01*
X0150039Y0131469D02*
Y0142044D01*
X0157214Y0142694D02*
X0163639Y0149119D01*
X0149389Y0142694D02*
X0150039Y0142044D01*
X0149089Y0130619D02*
X0150039Y0131569D01*
X0153814Y0132944D02*
X0155014D01*
X0165214Y0133919D02*
X0166139Y0134844D01*
Y0145319*
X0165314Y0146144D02*
X0166139Y0145319D01*
X0164314Y0146144D02*
X0165314D01*
X0163989Y0142694D02*
X0164014Y0142719D01*
X0138014Y0135194D02*
X0138064Y0135144D01*
X0134889Y0135194D02*
X0138014D01*
X0138539Y0142494D02*
Y0142619D01*
X0131943Y013524D02*
X0135026D01*
X0170939Y0160069D02*
X0171014D01*
X0172289Y0161344*
X0174139*
X0174999Y0159949D02*
X0179074D01*
X0128783Y0147691D02*
X0128918D01*
X0129851Y0148624*
X0155989Y0133919D02*
X0165214D01*
G54D33*
X0170764Y0113619D02*
Y0113644D01*
X0168639Y0108444D02*
X0169014Y0108069D01*
X0168639Y0108444D02*
Y0110869D01*
X0141414Y0136094D02*
X014173Y0135778D01*
X0141414Y0136094D02*
Y0138119D01*
X0141614Y0138319*
X0142714*
X014173Y0133359D02*
Y0134994D01*
Y0134883D02*
Y0135778D01*
G54D36*
X0177043Y0140579D03*
Y0162423D03*
X0128783Y0135499D03*
Y0157851D03*
X0177291Y0104139D03*
X0128015Y0107187D03*
X0145795Y0163067D03*
X0161812Y0093145D03*
G54D37*
X0177043Y0138039D03*
Y0135499D03*
Y0132959D03*
Y0130419D03*
Y0127879D03*
Y0125339D03*
Y0122799D03*
Y0159883D03*
Y0157343D03*
Y0154803D03*
Y0152263D03*
Y0149723D03*
Y0147183D03*
Y0144643D03*
X0128783Y0132959D03*
Y0130419D03*
Y0127879D03*
Y0125339D03*
Y0122799D03*
Y0155311D03*
Y0152771D03*
Y0150231D03*
Y0147691D03*
Y0145151D03*
Y0142611D03*
Y0140071D03*
X0128015Y0109727D03*
Y0112267D03*
Y0114807D03*
X0177291Y0116839D03*
Y0114299D03*
Y0111759D03*
Y0109219D03*
Y0106679D03*
X0140715Y0163067D03*
X0143255D03*
X0161812Y0090605D03*
X0159272Y0093145D03*
Y0090605D03*
X0156732Y0093145D03*
Y0090605D03*
X0154192Y0093145D03*
Y0090605D03*
X0151652Y0093145D03*
Y0090605D03*
X0149112Y0093145D03*
Y0090605D03*
X0146572Y0093145D03*
Y0090605D03*
X0144032Y0093145D03*
Y0090605D03*
X0141492Y0093145D03*
Y0090605D03*
X0138952Y0093145D03*
Y0090605D03*
G54D38*
X0169464Y0146024D03*
X0179564Y0146544D03*
X0135749Y0143849D03*
X0169049Y0095649D03*
X0168924Y0102549D03*
X0153664Y0106919D03*
X0152999Y0121174D03*
X0147499Y0106174D03*
X0144484Y0106204D03*
X0150404Y0105964D03*
X0141409Y0106129D03*
X0138334D03*
X0145429Y0115839D03*
Y0118789D03*
X0145454Y0121789D03*
X0153814Y0132944D03*
X0141864Y0131794D03*
X0133914Y0130594D03*
X0164314Y0146144D03*
X0164414Y0133919D03*
X0169014Y0108069D03*
X0165414Y0120744D03*
X0172889Y0112494D03*
X0174089Y0110094D03*
X0170787Y0113592D03*
X0163689Y0149119D03*
X0163939Y0142694D03*
X0148089D03*
X0148076Y0136407D03*
X0144591Y0120326D03*
X0144515Y0117278D03*
X0144454Y0114364D03*
X0139859Y0105179D03*
X0142959Y0105154D03*
X0145959Y0105129D03*
X0148929Y0105239D03*
X0151954D03*
X0174089Y0156594D03*
X0172889Y0158919D03*
X0173314Y0150719D03*
X0168639Y0132319D03*
X0167039Y0128819D03*
X0174264Y0126069D03*
X0169989Y0127644D03*
X0170654Y0111154D03*
X0168639Y0110869D03*
Y0114119D03*
X0170764Y0108719D03*
X0173614Y0139944D03*
X0173589Y0143044D03*
X0173464Y0147894D03*
X0174114Y0161294D03*
X0170939Y0160069D03*
X0132724Y0140674D03*
X0148799Y0123424D03*
X0149089Y0129339D03*
X0131574Y0115149D03*
G54D39*
X0140064Y0136407D03*
G54D40*
X0140064Y0137357D03*
Y0138307D03*
X0142764Y0136407D03*
Y0137357D03*
Y0138307D03*
M02*