G04 CAM350/DFMSTREAM V11.0 (Build 715) Date:  Thu Jan 31 17:35:09 2019 *
G04 Database: (Untitled) *
G04 Layer 9: pcb3-1 *
%FSTAX43Y43*%
%MOMM*%
%SFA1.000B1.000*%

%MIA0B0*%
%IPPOS*%
%ADD14C,0.20000*%
%ADD15C,0.25400*%
%ADD16C,0.20300*%
%LNpcb3-1*%
%LPD*%
G54D14*
X0083083Y0060151D02*
G01X0085623D01*
X0083083D02*
G01Y0080471D01*
X0085623*
Y0060151D02*
G01Y0080471D01*
X0131493Y0065197D02*
G01X0134033D01*
X0131493D02*
G01Y0085517D01*
X0134033*
Y0065197D02*
G01Y0085517D01*
X0083083Y0043137D02*
G01X0085623D01*
X0083083Y0058377D02*
G01X0085623D01*
Y0043137D02*
G01Y0058377D01*
X0083083Y0043137D02*
G01Y0058377D01*
X0131493Y0043353D02*
G01X0134033D01*
X0131493D02*
G01Y0063673D01*
X0134033*
Y0043353D02*
G01Y0063673D01*
X0108899Y0040439D02*
G01Y0045519D01*
X0116519Y0040439D02*
G01Y0045519D01*
X0108899Y0040439D02*
G01X0116519D01*
X0108899Y0045519D02*
G01X0116519D01*
X0108899D02*
G01X0113767D01*
G54D15*
X0085458Y0042286D02*
G01Y0040763D01*
X0084696*
X0084442Y0041017*
Y0041524*
X0084696Y0041778*
X0085458*
X0082919Y0040763D02*
G01X0083934D01*
Y0041524*
X0083427Y004127*
X0083173*
X0082919Y0041524*
Y0042032*
X0083173Y0042286*
X008368*
X0083934Y0042032*
X0082411Y0042286D02*
G01Y004127D01*
X0081903Y0040763*
X0081395Y004127*
Y0042286*
Y0041524*
X0082411*
X0085496Y0082503D02*
G01Y0080979D01*
X0084734*
X008448Y0081233*
Y0081741*
X0084734Y0081995*
X0085496*
X0083211Y0082503D02*
G01Y0080979D01*
X0083972Y0081741*
X0082957*
X0082449Y0082503D02*
G01Y0081487D01*
X0081941Y0080979*
X0081433Y0081487*
Y0082503*
Y0081741*
X0082449*
X0133749Y0042499D02*
G01Y0040975D01*
X0132987*
X0132733Y0041229*
Y0041737*
X0132987Y0041991*
X0133749*
X0132225Y0041229D02*
G01X0131972Y0040975D01*
X0131464*
X013121Y0041229*
Y0041483*
X0131464Y0041737*
X0131718*
X0131464*
X013121Y0041991*
Y0042245*
X0131464Y0042499*
X0131972*
X0132225Y0042245*
X0130702Y0042499D02*
G01Y0041483D01*
X0130194Y0040975*
X0129686Y0041483*
Y0042499*
Y0041737*
X0130702*
X0133779Y0087549D02*
G01Y0086025D01*
X0133017*
X0132763Y0086279*
Y0086787*
X0133017Y0087041*
X0133779*
X013124Y0087549D02*
G01X0132255D01*
X013124Y0086533*
Y0086279*
X0131494Y0086025*
X0132002*
X0132255Y0086279*
X0130732Y0087549D02*
G01Y0086533D01*
X0130224Y0086025*
X0129716Y0086533*
Y0087549*
Y0086787*
X0130732*
X0106829Y0040604D02*
G01X0105305D01*
Y0041366*
X0105559Y004162*
X0106067*
X0106321Y0041366*
Y0040604*
X0106829Y0042128D02*
G01Y0042635D01*
Y0042382*
X0105305*
X0105559Y0042128*
G54D16*
X0107799Y0040947D02*
G01X0108222Y0041159D01*
X0108645Y0041582*
Y0042005*
X0108433Y0042217*
X010801*
X0107799Y0042005*
Y0041794*
X010801Y0041582*
X0108645*
X0107799Y0043487D02*
G01X0108645D01*
Y0044122*
X0108222Y0043911*
X010801*
X0107799Y0044122*
Y0044545*
X010801Y0044757*
X0108433*
X0108645Y0044545*
X0116943Y0042217D02*
G01X0117789D01*
X0116943Y0041371*
Y0041159*
X0117154Y0040947*
X0117577*
X0117789Y0041159*
X0117281Y0044757D02*
G01X0116858D01*
X0117069*
Y0043487*
X0117281Y0043699*
M02*
