G04 CAM350/DFMSTREAM V11.0 (Build 715) Date:  Thu Jan 31 17:35:09 2019 *
G04 Database: (Untitled) *
G04 Layer 6: pcb3-1 *
%FSTAX43Y43*%
%MOMM*%
%SFA1.000B1.000*%

%MIA0B0*%
%IPPOS*%
%ADD17R,1.70300X1.70300*%
%ADD18C,1.70300*%
%LNpcb3-1*%
%LPD*%
G54D17*
X0135811Y0062403D03*
X0087401Y0057107D03*
Y0079201D03*
X0135811Y0084247D03*
X0084353Y0079201D03*
X0132763Y0084247D03*
X0084353Y0057107D03*
X0132763Y0062403D03*
X0115249Y0044249D03*
G54D18*
X0135811Y0059863D03*
Y0057323D03*
Y0054783D03*
Y0052243D03*
Y0049703D03*
Y0047163D03*
Y0044623D03*
X0087401Y0054567D03*
Y0052027D03*
Y0049487D03*
Y0046947D03*
Y0044407D03*
Y0076661D03*
Y0074121D03*
Y0071581D03*
Y0069041D03*
Y0066501D03*
Y0063961D03*
Y0061421D03*
X0135811Y0081707D03*
Y0079167D03*
Y0076627D03*
Y0074087D03*
Y0071547D03*
Y0069007D03*
Y0066467D03*
X0084353Y0076661D03*
Y0074121D03*
Y0071581D03*
Y0069041D03*
Y0066501D03*
Y0063961D03*
Y0061421D03*
X0132763Y0081707D03*
Y0079167D03*
Y0076627D03*
Y0074087D03*
Y0071547D03*
Y0069007D03*
Y0066467D03*
X0084353Y0054567D03*
Y0052027D03*
Y0049487D03*
Y0046947D03*
Y0044407D03*
X0132763Y0059863D03*
Y0057323D03*
Y0054783D03*
Y0052243D03*
Y0049703D03*
Y0047163D03*
Y0044623D03*
X0115249Y0041709D03*
X0112709Y0044249D03*
Y0041709D03*
X0110169Y0044249D03*
Y0041709D03*
M02*
