G04 CAM350/DFMSTREAM V11.0 (Build 715) Date:  Thu Jan 31 17:35:08 2019 *
G04 Database: (Untitled) *
G04 Layer 4: pcb3-1 *
%FSTAX43Y43*%
%MOMM*%
%SFA1.000B1.000*%

%MIA0B0*%
%IPPOS*%
%ADD14C,0.20000*%
%ADD15C,0.25400*%
%LNpcb3-1*%
%LPD*%
G54D14*
X0134541Y0043353D02*
G01X0137081D01*
Y0063673*
X0134541D02*
G01X0137081D01*
X0134541Y0043353D02*
G01Y0063673D01*
X0086131Y0043137D02*
G01X0088671D01*
X0086131Y0058377D02*
G01X0088671D01*
X0086131Y0043137D02*
G01Y0058377D01*
X0088671Y0043137D02*
G01Y0058377D01*
X0086131Y0060151D02*
G01X0088671D01*
Y0080471*
X0086131D02*
G01X0088671D01*
X0086131Y0060151D02*
G01Y0080471D01*
X0134541Y0065197D02*
G01X0137081D01*
Y0085517*
X0134541D02*
G01X0137081D01*
X0134541Y0065197D02*
G01Y0085517D01*
G54D15*
X0086296Y0042286D02*
G01Y0040763D01*
X0087058*
X0087312Y0041017*
Y0041524*
X0087058Y0041778*
X0086296*
X0088835Y0040763D02*
G01X008782D01*
Y0041524*
X0088327Y004127*
X0088581*
X0088835Y0041524*
Y0042032*
X0088581Y0042286*
X0088074*
X008782Y0042032*
X0089343Y0040763D02*
G01Y0042286D01*
X0090105*
X0090359Y0042032*
Y0041778*
X0090105Y0041524*
X0089343*
X0090105*
X0090359Y004127*
Y0041017*
X0090105Y0040763*
X0089343*
X0086249Y0082499D02*
G01Y0080975D01*
X0087011*
X0087265Y0081229*
Y0081737*
X0087011Y0081991*
X0086249*
X0088534Y0082499D02*
G01Y0080975D01*
X0087773Y0081737*
X0088788*
X0089296Y0080975D02*
G01Y0082499D01*
X0090058*
X0090312Y0082245*
Y0081991*
X0090058Y0081737*
X0089296*
X0090058*
X0090312Y0081483*
Y0081229*
X0090058Y0080975*
X0089296*
X0134706Y0042502D02*
G01Y0040979D01*
X0135468*
X0135722Y0041233*
Y004174*
X0135468Y0041994*
X0134706*
X013623Y0041233D02*
G01X0136484Y0040979D01*
X0136991*
X0137245Y0041233*
Y0041486*
X0136991Y004174*
X0136737*
X0136991*
X0137245Y0041994*
Y0042248*
X0136991Y0042502*
X0136484*
X013623Y0042248*
X0137753Y0040979D02*
G01Y0042502D01*
X0138515*
X0138769Y0042248*
Y0041994*
X0138515Y004174*
X0137753*
X0138515*
X0138769Y0041486*
Y0041233*
X0138515Y0040979*
X0137753*
X0134499Y0087499D02*
G01Y0085975D01*
X0135261*
X0135515Y0086229*
Y0086737*
X0135261Y0086991*
X0134499*
X0137038Y0087499D02*
G01X0136023D01*
X0137038Y0086483*
Y0086229*
X0136784Y0085975*
X0136276*
X0136023Y0086229*
X0137546Y0085975D02*
G01Y0087499D01*
X0138308*
X0138562Y0087245*
Y0086991*
X0138308Y0086737*
X0137546*
X0138308*
X0138562Y0086483*
Y0086229*
X0138308Y0085975*
X0137546*
M02*
