M48
INCH,LZ
VER,1
FMAT,2
T01C0.027992F1B1S6H2000
T02C0.035433F1B1S6H2000
DETECT,ON
ATC,ON
%
T01
X0296Y0267
X029Y0265
X0284Y0267
X0277Y0265
X0271Y0267
X02655Y02645
X02595Y0267
X023011Y025
X02945Y02985
X0322Y02515
X03145Y02635
X03385Y02645
X03695Y02685
X03845Y02715
X0382Y02835
X03755
X0379Y02995
X0372Y0251
X0349Y03365
X03015Y02635
X03085Y02665
X038194Y033656
X0297Y03045
X0294Y0311
X0297Y0317
X02945Y0323
X0297Y0329
X02445
T02
X0298Y02335
X0288
X0278
X0268
X0258
X0248
X0238
Y02235
X0248
X0258
X0268
X0278
X0288
X0298
X0216Y02785
Y02885
Y02985
X0204
Y02885
Y02785
X0398Y0268
Y0278
Y0288
Y0298
X0308Y02335
Y02235
X041Y0298
Y0288
Y0278
Y0268
Y0308
Y0318
X0398Y0308
Y0318
X0216Y03085
X0204
M30
