%FSTAX43Y43*%
%MOMM*%
%SFA1B1*%

%IPPOS*%
%ADD26C,0.200000*%
%ADD27C,0.150000*%
%LNpcb2-1*%
%LPD*%
G54D26*
X0099821Y0069468D02*
X0102361D01*
Y0079628*
X0099821Y0069468D02*
Y0079628D01*
X0102361*
X0050545Y0069468D02*
X0053085D01*
Y0079628*
X0050545Y0069468D02*
Y0079628D01*
X0053085*
X0099821Y0082041D02*
X0102361D01*
X0099821Y0066801D02*
X0102361D01*
Y0082041*
X0099821Y0066801D02*
Y0082041D01*
G54D27*
X005292Y0080479D02*
Y0081079D01*
X005262*
X005252Y0080979*
Y0080779*
X005262Y0080679*
X005292*
X005192Y0080479D02*
X005232D01*
X005192Y0080879*
Y0080979*
X005202Y0081079*
X005222*
X005232Y0080979*
X005172Y0081079D02*
Y0080479D01*
X005142*
X005132Y0080579*
Y0080679*
X005142Y0080779*
X005172*
X005142*
X005132Y0080879*
Y0080979*
X005142Y0081079*
X005172*
X0102234Y0082549D02*
Y0083149D01*
X0101934*
X0101834Y0083049*
Y0082849*
X0101934Y0082749*
X0102234*
X0101234Y0082549D02*
X0101634D01*
X0101234Y0082949*
Y0083049*
X0101334Y0083149*
X0101534*
X0101634Y0083049*
X0101034Y0082549D02*
Y0082949D01*
X0100834Y0083149*
X0100635Y0082949*
Y0082549*
Y0082849*
X0101034*
X0094487Y0077977D02*
X0093887D01*
Y0077677*
X0093987Y0077577*
X0094187*
X0094287Y0077677*
Y0077977*
Y0077777D02*
X0094487Y0077577D01*
X0093887Y0077377D02*
X0094487D01*
Y0077077*
X0094387Y0076977*
X0093987*
X0093887Y0077077*
Y0077377*
X0094487Y0076777D02*
X0094087D01*
X0093887Y0076577*
X0094087Y0076378*
X0094487*
X0094187*
Y0076777*
X0093887Y0076178D02*
Y0075978D01*
Y0076078*
X0094487*
Y0076178*
Y0075978*
X0093987Y0075278D02*
X0093887Y0075378D01*
Y0075578*
X0093987Y0075678*
X0094087*
X0094187Y0075578*
Y0075378*
X0094287Y0075278*
X0094387*
X0094487Y0075378*
Y0075578*
X0094387Y0075678*
X0093887Y0075078D02*
X0093987D01*
X0094187Y0074878*
X0093987Y0074678*
X0093887*
X0094187Y0074878D02*
X0094487D01*
X0094587Y0074478D02*
Y0074078D01*
X0093887Y0073878D02*
Y0073678D01*
Y0073778*
X0094487*
Y0073878*
Y0073678*
Y0073378D02*
X0093887D01*
X0094487Y0072979*
X0093887*
M02*