%FSTAX43Y43*%
%MOMM*%
%SFA1B1*%

%IPPOS*%
%ADD30R,0.902998X1.102998*%
%ADD37C,1.702997*%
%ADD38R,1.702997X1.702997*%
%ADD39C,1.472997*%
%LNpcb2-1*%
%LPD*%
G54D30*
X0094995Y0075676D03*
Y0076976D03*
G54D37*
X0054863Y0078358D03*
Y0075818D03*
X0060451Y0056768D03*
Y0059308D03*
X0062991Y0056768D03*
Y0059308D03*
X0065531Y0056768D03*
Y0059308D03*
X0068071Y0056768D03*
Y0059308D03*
X0070611Y0056768D03*
Y0059308D03*
X0073151Y0056768D03*
Y0059308D03*
X0075691Y0056768D03*
Y0059308D03*
X0078231Y0056768D03*
X0054863Y0073278D03*
X0051815D03*
Y0075818D03*
Y0078358D03*
X0101091Y0070611D03*
Y0073151D03*
Y0075691D03*
Y0078231D03*
Y0080771D03*
X0104139D03*
Y0078231D03*
Y0075691D03*
Y0073151D03*
Y0070611D03*
G54D38*
X0078231Y0059308D03*
X0101091Y0068071D03*
X0104139D03*
X0054863Y0070738D03*
X0051815D03*
G54D39*
X0075437Y0083565D03*
X0074802Y0082041D03*
X0075437Y0080517D03*
X0074675Y0078993D03*
X0075437Y0077342D03*
X0074802Y0075818D03*
X0065912Y0067817D03*
X0067436Y0067182D03*
X0068833Y0067817D03*
X0070357Y0067309D03*
X0072135Y0067817D03*
X0073659Y0067309D03*
X0075183Y0067817D03*
X007658Y0066928D03*
X0078358Y006769D03*
X0079882Y0066928D03*
X0096265Y0076072D03*
X0095376Y0072008D03*
X0097027D03*
X0097012Y0085485D03*
X0093852Y0068198D03*
X0094487Y0063753D03*
X0097662Y006896D03*
X0088645Y008547D03*
X0081787Y006388D03*
X0058449Y0063499D03*
X0062102Y0083565D03*
X0085978Y0067182D03*
M02*