G04 CAM350/DFMSTREAM V11.0 (Build 715) Date:  Thu Jan 31 17:38:16 2019 *
G04 Database: (Untitled) *
G04 Layer 10: pcb2-1 *
%FSTAX43Y43*%
%MOMM*%
%SFA1.000B1.000*%

%MIA0B0*%
%IPPOS*%
%ADD10R,0.90000X0.70000*%
%ADD11R,0.70000X0.90000*%
%ADD12R,1.00000X1.10000*%
%ADD13R,1.50000X1.30000*%
%ADD14R,0.30000X1.10000*%
%ADD15R,1.10000X0.30000*%
%ADD16R,1.10000X1.00000*%
%ADD17O,1.10000X0.30000*%
%LNpcb2-1*%
%LPD*%
G54D10*
X0077073Y0080517D03*
X0078373D03*
X0077073Y0083565D03*
X0078373D03*
X0077073Y0077342D03*
X0078373D03*
G54D11*
X0091947Y0063992D03*
Y0065292D03*
X0089915Y0085485D03*
Y0084185D03*
X0091439Y0085485D03*
Y0084185D03*
X0088391Y0063992D03*
Y0065292D03*
X0087375Y0085485D03*
Y0084185D03*
X0086359Y0063992D03*
Y0065292D03*
X0065912Y0069453D03*
Y0070753D03*
X0093725Y0085485D03*
Y0084185D03*
X0095249Y0085485D03*
Y0084185D03*
X0084327Y0085485D03*
Y0084185D03*
X0085851Y0085485D03*
Y0084185D03*
X0072135Y0069453D03*
Y0070753D03*
X0068833Y0069453D03*
Y0070753D03*
X0075183Y0069453D03*
Y0070753D03*
X0078358Y0069453D03*
Y0070753D03*
X0060324Y0063387D03*
Y0062087D03*
X0062864Y0063387D03*
Y0062087D03*
X0065404Y0063387D03*
Y0062087D03*
X0067944Y0063387D03*
Y0062087D03*
X0070484Y0063387D03*
Y0062087D03*
X0073024Y0063387D03*
Y0062087D03*
X0075564Y0063387D03*
Y0062087D03*
X0078104Y0063387D03*
Y0062087D03*
G54D12*
X0090423Y0065492D03*
Y0063792D03*
X0079882Y0069253D03*
Y0070953D03*
X007658Y0069253D03*
Y0070953D03*
X0073659Y0069253D03*
Y0070953D03*
X0070357Y0069253D03*
Y0070953D03*
X0067436Y0069253D03*
Y0070953D03*
G54D13*
X0084327Y0065592D03*
Y0063692D03*
G54D14*
X0083837Y0080408D03*
X0084337D03*
X0084837D03*
X0085337D03*
X0085837D03*
X0086337D03*
X0086837D03*
X0087337D03*
X0087837D03*
X0088337D03*
X0088837D03*
X0089337D03*
X0089837D03*
X0090337D03*
X0090837D03*
X0091337D03*
Y0068808D03*
X0090837D03*
X0090337D03*
X0089837D03*
X0089337D03*
X0088837D03*
X0088337D03*
X0087837D03*
X0087337D03*
X0086837D03*
X0086337D03*
X0085837D03*
X0085337D03*
X0084837D03*
X0084337D03*
X0083837D03*
G54D15*
X0093387Y0078358D03*
Y0077858D03*
Y0077358D03*
Y0076858D03*
Y0076358D03*
Y0075858D03*
Y0075358D03*
Y0074858D03*
Y0074358D03*
Y0073858D03*
Y0073358D03*
Y0072858D03*
Y0072358D03*
Y0071858D03*
Y0071358D03*
Y0070858D03*
X0081787D03*
Y0071858D03*
Y0072858D03*
Y0073858D03*
Y0074858D03*
Y0075858D03*
Y0076858D03*
Y0077858D03*
Y0077358D03*
Y0076358D03*
Y0075358D03*
Y0074358D03*
Y0073358D03*
Y0072358D03*
Y0071358D03*
G54D16*
X0076746Y0075818D03*
X0078446D03*
X0076746Y0078993D03*
X0078446D03*
X0076746Y0082041D03*
X0078446D03*
G54D17*
X0081787Y0078358D03*
M02*
